<?xml version="1.0" standalone="no"?>
<!DOCTYPE svg PUBLIC "-//W3C//DTD SVG 1.1//EN" "http://www.w3.org/Graphics/SVG/1.1/DTD/svg11.dtd" >
<svg xmlns="http://www.w3.org/2000/svg">
<metadata>Generated by IcoMoon</metadata>
<defs>
<font id="uplift-nucleo-16" horiz-adv-x="1024">
<font-face units-per-em="1024" ascent="960" descent="-64" />
<missing-glyph horiz-adv-x="1024" />
<glyph unicode="&#x20;" horiz-adv-x="512" d="" />
<glyph unicode="&#xe900;" glyph-name="cloud-download" d="M832 505.6c0 0 0 6.4 0 6.4 0 179.2-140.8 320-320 320-160 0-294.4-115.2-313.6-275.2-115.2-38.4-198.4-140.8-198.4-268.8 0-160 128-288 288-288 108.8 0 377.6 0 480 0 140.8 0 256 115.2 256 256 0 121.6-83.2 217.6-192 249.6zM512 128l-256 256h192v192h128v-192h192l-256-256z" />
<glyph unicode="&#xe901;" glyph-name="cloud-upload" d="M832 505.6c0 0 0 6.4 0 6.4 0 179.2-140.8 320-320 320-160 0-294.4-115.2-313.6-275.2-115.2-38.4-198.4-140.8-198.4-268.8 0-160 128-288 288-288 108.8 0 377.6 0 480 0 140.8 0 256 115.2 256 256 0 121.6-83.2 217.6-192 249.6zM576 320v-192h-128v192h-192l256 256 256-256h-192z" />
<glyph unicode="&#xe902;" glyph-name="download" d="M576 448v448h-128v-448h-153.6l217.6-256 217.6 256zM960-64h-896c-38.4 0-64 25.6-64 64v576c0 38.4 25.6 64 64 64h192v-128h-128v-448h768v448h-128v128h192c38.4 0 64-25.6 64-64v-576c0-38.4-25.6-64-64-64z" />
<glyph unicode="&#xe903;" glyph-name="fullscreen" d="M576 832h230.4l-256-256 89.6-89.6 256 256v-230.4h128v448h-448zM384 409.6l-256-256v230.4h-128v-448h448v128h-230.4l256 256z" />
<glyph unicode="&#xe904;" glyph-name="share-up" d="M448 704v-448h128v448h153.6l-217.6 256-217.6-256zM960-64h-896c-38.4 0-64 25.6-64 64v576c0 38.4 25.6 64 64 64h192v-128h-128v-448h768v448h-128v128h192c38.4 0 64-25.6 64-64v-576c0-38.4-25.6-64-64-64z" />
<glyph unicode="&#xe905;" glyph-name="share-right" d="M960-64h-896c-38.4 0-64 25.6-64 64v768c0 38.4 25.6 64 64 64h192v-128h-128v-640h768v320h128v-384c0-38.4-25.6-64-64-64zM640 768c-204.8 0-384-160-384-448 70.4 108.8 153.6 192 384 192v-192l384 320-384 320v-192z" />
<glyph unicode="&#xe906;" glyph-name="shuffle" d="M768 768h-12.8c-89.6 0-179.2-38.4-236.8-108.8l-300.8-339.2c-38.4-44.8-89.6-64-147.2-64h-70.4v-128h76.8c89.6 0 179.2 38.4 243.2 108.8l294.4 339.2c38.4 44.8 89.6 64 147.2 64h6.4v-128l256 192-256 192v-128zM217.6 576l38.4-44.8 96 83.2-38.4 44.8c-57.6 70.4-147.2 108.8-236.8 108.8h-76.8v-128h76.8c51.2 0 108.8-25.6 140.8-64zM768 256h-12.8c-57.6 0-108.8 25.6-147.2 64l-32 44.8-96-83.2 38.4-38.4c64-70.4 147.2-108.8 243.2-108.8h6.4v-128l256 192-256 192v-134.4z" />
<glyph unicode="&#xe907;" glyph-name="arrow-left" d="M428.8 19.2l89.6 89.6-275.2 275.2h780.8v128h-780.8l275.2 275.2-89.6 89.6-428.8-428.8z" />
<glyph unicode="&#xe908;" glyph-name="arrow-right" d="M595.2 876.8l-89.6-89.6 275.2-275.2h-780.8v-128h780.8l-275.2-275.2 89.6-89.6 428.8 428.8z" />
<glyph unicode="&#xe909;" glyph-name="arrow-up" d="M83.2 531.2l89.6-89.6 275.2 275.2v-780.8h128v780.8l275.2-275.2 89.6 89.6-428.8 428.8z" />
<glyph unicode="&#xe90a;" glyph-name="chevron-left" d="M640 102.4l-345.6 345.6 345.6 345.6 89.6-89.6-256-256 256-256z" />
<glyph unicode="&#xe90b;" glyph-name="chevron-right" d="M384 102.4l-89.6 89.6 256 256-256 256 89.6 89.6 345.6-345.6z" />
<glyph unicode="&#xe90c;" glyph-name="chevron-down" d="M512 230.4l-345.6 345.6 89.6 89.6 256-256 256 256 89.6-89.6z" />
<glyph unicode="&#xe90d;" glyph-name="chevron-up" d="M768 230.4l-256 256-256-256-89.6 89.6 345.6 345.6 345.6-345.6z" />
<glyph unicode="&#xe90e;" glyph-name="arrow-square-right" d="M960 960h-896c-38.4 0-64-25.6-64-64v-896c0-38.4 25.6-64 64-64h896c38.4 0 64 25.6 64 64v896c0 38.4-25.6 64-64 64zM512 192v192h-256v128h256v192l256-256-256-256z" />
<glyph unicode="&#xe90f;" glyph-name="arrow-circle-right" d="M448 230.4l-89.6 89.6 128 128-128 128 89.6 89.6 217.6-217.6zM512 960c-281.6 0-512-230.4-512-512s230.4-512 512-512 512 230.4 512 512-230.4 512-512 512zM512 64c-211.2 0-384 172.8-384 384s172.8 384 384 384 384-172.8 384-384-172.8-384-384-384z" />
<glyph unicode="&#xe910;" glyph-name="undo" d="M492.8 883.2l44.8-409.6 134.4 134.4c121.6-121.6 121.6-326.4 0-448-57.6-64-140.8-96-224-96s-166.4 32-224 96c-121.6 121.6-121.6 326.4 0 448 38.4 38.4 89.6 70.4 147.2 83.2l-38.4 121.6c-76.8-19.2-147.2-57.6-204.8-115.2-172.8-172.8-172.8-454.4 0-633.6 83.2-83.2 198.4-128 313.6-128 121.6 0 230.4 44.8 313.6 128 172.8 172.8 172.8 454.4 0 633.6l140.8 140.8-403.2 44.8z" />
<glyph unicode="&#xe911;" glyph-name="refresh" d="M288 672c121.6 121.6 326.4 121.6 448 0 44.8-44.8 76.8-108.8 89.6-172.8l128 19.2c-12.8 96-57.6 179.2-121.6 243.2-172.8 172.8-454.4 172.8-633.6 0l-140.8 140.8-44.8-409.6 409.6 44.8-134.4 134.4zM1011.2 403.2l-409.6-44.8 134.4-134.4c-121.6-121.6-326.4-121.6-448 0-44.8 44.8-76.8 108.8-89.6 172.8l-128-19.2c12.8-96 57.6-179.2 121.6-243.2 89.6-89.6 198.4-128 313.6-128s230.4 44.8 313.6 128l140.8-140.8 51.2 409.6z" />
<glyph unicode="&#xe912;" glyph-name="share-diagnol" d="M960 960h-448v-128h294.4l-403.2-403.2 89.6-89.6 403.2 403.2v-294.4h128v448c0 38.4-25.6 64-64 64zM896-64h-832c-38.4 0-64 25.6-64 64v832c0 38.4 25.6 64 64 64h256v-128h-192v-704h704v192h128v-256c0-38.4-25.6-64-64-64z" />
<glyph unicode="&#xe913;" glyph-name="award" d="M832 640c0-176.731-143.269-320-320-320s-320 143.269-320 320c0 176.731 143.269 320 320 320s320-143.269 320-320zM883.2 390.4c-70.4-108.8-192-185.6-332.8-198.4l121.6-256 121.6 198.4 230.4-32-140.8 288zM140.8 390.4l-140.8-288 230.4 32 115.2-198.4 121.6 256c-134.4 12.8-256 89.6-326.4 198.4z" />
<glyph unicode="&#xe914;" glyph-name="badge" d="M640 832c0 70.4-57.6 128-128 128s-128-57.6-128-128v-128h256v128zM960 576h-896c-38.4 0-64-25.6-64-64v-512c0-38.4 25.6-64 64-64h896c38.4 0 64 25.6 64 64v512c0 38.4-25.6 64-64 64zM448 128h-256v256h256v-256zM832 128h-256v64h256v-64zM832 320h-256v64h256v-64z" />
<glyph unicode="&#xe915;" glyph-name="briefcase" d="M960 704h-192v192c0 38.4-25.6 64-64 64h-384c-38.4 0-64-25.6-64-64v-192h-192c-38.4 0-64-25.6-64-64v-640c0-38.4 25.6-64 64-64h896c38.4 0 64 25.6 64 64v640c0 38.4-25.6 64-64 64zM384 832h256v-128h-256v128zM896 64h-768v512h768v-512zM320 512h384v-192h-384v192z" />
<glyph unicode="&#xe916;" glyph-name="bulb" d="M896 576c0 211.2-172.8 384-384 384s-384-172.8-384-384c0-140.8 76.8-268.8 192-332.8v-115.2h384v115.2c115.2 64 192 192 192 332.8zM448-64h128c70.4 0 128 57.6 128 128h-384c0-70.4 57.6-128 128-128z" />
<glyph unicode="&#xe917;" glyph-name="barchart" d="M576 960h-128c-38.4 0-64-25.6-64-64v-896c0-38.4 25.6-64 64-64h128c38.4 0 64 25.6 64 64v896c0 38.4-25.6 64-64 64zM192 320h-128c-38.4 0-64-25.6-64-64v-256c0-38.4 25.6-64 64-64h128c38.4 0 64 25.6 64 64v256c0 38.4-25.6 64-64 64zM960 640h-128c-38.4 0-64-25.6-64-64v-576c0-38.4 25.6-64 64-64h128c38.4 0 64 25.6 64 64v576c0 38.4-25.6 64-64 64z" />
<glyph unicode="&#xe918;" glyph-name="piechart" d="M448 832c-249.6 0-448-198.4-448-448s198.4-448 448-448 448 198.4 448 448h-448v448zM576 960v-448h448c0 249.6-198.4 448-448 448z" />
<glyph unicode="&#xe919;" glyph-name="cheque" d="M960 576h-192v-128h128v-384h-768v384h64v128h-128c-38.4 0-64-25.6-64-64v-512c0-38.4 25.6-64 64-64h896c38.4 0 64 25.6 64 64v512c0 38.4-25.6 64-64 64zM320 448h128c19.2 0 32 6.4 44.8 19.2l320 320c25.6 25.6 25.6 64 0 89.6l-64 64c-25.6 25.6-64 25.6-89.6 0l-320-320c-12.8-12.8-19.2-25.6-19.2-44.8v-128zM256 320h512v-128h-512v128z" />
<glyph unicode="&#xe91a;" glyph-name="dollar" d="M576 499.2v198.4c38.4-12.8 64-51.2 64-89.6s25.6-64 64-64 64 25.6 64 64c0 115.2-83.2 204.8-192 217.6v70.4c0 38.4-25.6 64-64 64s-64-25.6-64-64v-70.4c-108.8-12.8-192-102.4-192-217.6 0-134.4 102.4-185.6 192-211.2v-198.4c-38.4 12.8-64 51.2-64 89.6s-25.6 64-64 64-64-25.6-64-64c0-115.2 83.2-204.8 192-217.6v-70.4c0-38.4 25.6-64 64-64s64 25.6 64 64v70.4c108.8 12.8 192 108.8 192 217.6 0 134.4-102.4 185.6-192 211.2zM384 608c0 44.8 25.6 76.8 64 89.6v-166.4c-44.8 19.2-64 38.4-64 76.8zM576 198.4v166.4c44.8-19.2 64-38.4 64-76.8 0-44.8-25.6-76.8-64-89.6z" />
<glyph unicode="&#xe91b;" glyph-name="euro" d="M819.2 179.2c-57.6-32-115.2-51.2-179.2-51.2-128 0-243.2 76.8-294.4 192h230.4c38.4 0 64 25.6 64 64s-25.6 64-64 64h-256c0 19.2 0 44.8 6.4 64h249.6c38.4 0 64 25.6 64 64s-25.6 64-64 64h-192c57.6 76.8 147.2 128 256 128 64 0 121.6-19.2 179.2-51.2 32-19.2 70.4-12.8 89.6 19.2s12.8 70.4-19.2 89.6c-76.8 44.8-160 70.4-249.6 70.4-179.2 0-332.8-102.4-403.2-256h-108.8c-38.4 0-64-25.6-64-64s25.6-64 64-64h70.4c-6.4-19.2-6.4-44.8-6.4-64h-64c-38.4 0-64-25.6-64-64s25.6-64 64-64h83.2c57.6-185.6 224-320 428.8-320 89.6 0 172.8 25.6 249.6 76.8 32 19.2 38.4 57.6 19.2 89.6-25.6 25.6-64 32-89.6 12.8z" />
<glyph unicode="&#xe91c;" glyph-name="pound" d="M768 128h-320v192h192c38.4 0 64 25.6 64 64s-25.6 64-64 64h-192v192c0 70.4 57.6 128 128 128s128-57.6 128-128c0-38.4 25.6-64 64-64s64 25.6 64 64c0 140.8-115.2 256-256 256s-256-115.2-256-256v-192h-128c-38.4 0-64-25.6-64-64s25.6-64 64-64h128v-192h-128c-38.4 0-64-25.6-64-64s25.6-64 64-64h576c38.4 0 64 25.6 64 64s-25.6 64-64 64z" />
<glyph unicode="&#xe91d;" glyph-name="yen" d="M768 320h-192v64h192c38.4 0 64 25.6 64 64s-25.6 64-64 64h-172.8l224 281.6c19.2 25.6 19.2 70.4-12.8 89.6-25.6 19.2-70.4 19.2-89.6-12.8l-204.8-256-204.8 256c-19.2 25.6-64 32-89.6 12.8s-32-64-12.8-89.6l224-281.6h-172.8c-38.4 0-64-25.6-64-64s25.6-64 64-64h192v-64h-192c-38.4 0-64-25.6-64-64s25.6-64 64-64h192v-128c0-38.4 25.6-64 64-64s64 25.6 64 64v128h192c38.4 0 64 25.6 64 64s-25.6 64-64 64z" />
<glyph unicode="&#xe91f;" glyph-name="goal" d="M1004.8 236.8l-147.2 147.2 83.2 83.2c38.4 38.4 0 102.4-38.4 108.8l-134.4 19.2c-12.8 198.4-179.2 364.8-384 364.8-211.2 0-384-172.8-384-384 0-204.8 166.4-371.2 364.8-384l19.2-134.4c6.4-38.4 64-83.2 108.8-38.4l83.2 83.2 147.2-147.2c32-32 70.4-19.2 89.6 0l192 192c25.6 25.6 25.6 64 0 89.6zM128 576c0 140.8 115.2 256 256 256 128 0 236.8-96 249.6-224l-243.2 32c-51.2 6.4-76.8-25.6-70.4-70.4l32-243.2c-128 12.8-224 121.6-224 249.6z" />
<glyph unicode="&#xe920;" glyph-name="hierarchy" d="M384 192h256v-256h-256v256zM384 960h256v-256h-256v256zM768 192h256v-256h-256v256zM0 192h256v-256h-256v256zM192 384h256v-128h128v128h256v-128h128v192c0 38.4-25.6 64-64 64h-320v128h-128v-128h-320c-38.4 0-64-25.6-64-64v-192h128v128z" />
<glyph unicode="&#xe921;" glyph-name="plug" d="M1024 768h-192v192h-128v-192h-384v192h-128v-192h-192v-128h128v-192c0-153.6 108.8-281.6 256-313.6v-134.4c0-38.4 25.6-64 64-64h128c38.4 0 64 25.6 64 64v134.4c147.2 32 256 160 256 313.6v192h128v128z" />
<glyph unicode="&#xe922;" glyph-name="app" d="M985.6 761.6l-448 192c-19.2 6.4-32 6.4-51.2 0l-448-192c-25.6-6.4-38.4-32-38.4-57.6v-512c0-25.6 12.8-51.2 38.4-57.6l448-192c6.4-6.4 19.2-6.4 25.6-6.4s19.2 0 25.6 6.4l448 192c25.6 12.8 38.4 32 38.4 57.6v512c0 25.6-12.8 51.2-38.4 57.6zM512 825.6l288-121.6-288-121.6-288 121.6 288 121.6zM128 608l320-134.4v-371.2l-320 134.4v371.2zM576 96v371.2l320 134.4v-371.2l-320-134.4z" />
<glyph unicode="&#xe923;" glyph-name="brush" d="M576 320l-192 192 409.6 409.6c51.2 51.2 140.8 51.2 192 0v0c51.2-51.2 51.2-140.8 0-192l-409.6-409.6zM89.6 300.8c76.8 76.8 198.4 76.8 268.8 0s76.8-198.4 0-268.8-358.4-96-358.4-96 12.8 288 89.6 364.8z" />
<glyph unicode="&#xe924;" glyph-name="command" d="M800 384h-96v128h96c121.6 0 224 102.4 224 224s-102.4 224-224 224-224-102.4-224-224v-96h-128v96c0 121.6-102.4 224-224 224s-224-102.4-224-224 102.4-224 224-224h96v-128h-96c-121.6 0-224-102.4-224-224s102.4-224 224-224 224 102.4 224 224v96h128v-96c0-121.6 102.4-224 224-224s224 102.4 224 224-102.4 224-224 224zM704 736c0 51.2 44.8 96 96 96s96-44.8 96-96-44.8-96-96-96h-96v96zM128 736c0 51.2 44.8 96 96 96s96-44.8 96-96v-96h-96c-51.2 0-96 44.8-96 96zM320 160c0-51.2-44.8-96-96-96s-96 44.8-96 96 44.8 96 96 96h96v-96zM448 512h128v-128h-128v128zM800 64c-51.2 0-96 44.8-96 96v96h96c51.2 0 96-44.8 96-96s-44.8-96-96-96z" />
<glyph unicode="&#xe925;" glyph-name="crop" d="M640 128h192v-192h-192v192zM832 384v448h-448v128h-192v-128h-192v-192h640v-256h-256v192h-192v-384h832v192z" />
<glyph unicode="&#xe926;" glyph-name="design" d="M140.8 601.6l217.6 217.6-121.6 121.6c-25.6 25.6-64 25.6-89.6 0l-128-128c-25.6-25.6-25.6-64 0-89.6l121.6-121.6zM883.2 294.4l-217.6-217.6 121.6-121.6c12.8-12.8 25.6-19.2 44.8-19.2h192v192c0 19.2-6.4 32-19.2 44.8l-121.6 121.6zM1004.8 684.8l-256 256c-25.6 25.6-64 25.6-89.6 0l-83.2-83.2 108.8-108.8-89.6-89.6-108.8 108.8-102.4-102.4 108.8-108.8-89.6-89.6-108.8 108.8-102.4-102.4 108.8-108.8-89.6-89.6-108.8 108.8-83.2-83.2c-25.6-25.6-25.6-64 0-89.6l256-256c25.6-25.6 64-25.6 89.6 0l640 640c25.6 25.6 25.6 64 0 89.6z" />
<glyph unicode="&#xe927;" glyph-name="eraser" d="M0 64h1024v-128h-1024v128zM294.4 192h307.2l339.2 339.2c25.6 25.6 25.6 64 0 89.6l-320 320c-25.6 25.6-64 25.6-89.6 0l-448-448c-25.6-25.6-25.6-64 0-89.6l211.2-211.2z" />
<glyph unicode="&#xe929;" glyph-name="mouse" d="M640 960h-256c-140.8 0-256-115.2-256-256v-512c0-140.8 115.2-256 256-256h256c140.8 0 256 115.2 256 256v512c0 140.8-115.2 256-256 256zM768 192c0-70.4-57.6-128-128-128h-256c-70.4 0-128 57.6-128 128v512c0 70.4 57.6 128 128 128h256c70.4 0 128-57.6 128-128v-512zM512 704c-38.4 0-64-25.6-64-64v-128c0-38.4 25.6-64 64-64s64 25.6 64 64v128c0 38.4-25.6 64-64 64z" />
<glyph unicode="&#xe92a;" glyph-name="paint" d="M960 960h-768c-38.4 0-64-25.6-64-64v-64h-64c-38.4 0-64-25.6-64-64v-384c0-38.4 25.6-64 64-64h384v-384h256v448c0 38.4-25.6 64-64 64h-512v192c0-38.4 25.6-64 64-64h768c38.4 0 64 25.6 64 64v256c0 38.4-25.6 64-64 64zM768 185.6c0-70.4 57.6-121.6 128-121.6s128 57.6 128 121.6c0 70.4-128 249.6-128 249.6s-128-179.2-128-249.6z" />
<glyph unicode="&#xe92b;" glyph-name="copy" d="M192 128v512h-192v-704h704v192zM320 960h704v-704h-704v704z" />
<glyph unicode="&#xe92c;" glyph-name="pen" d="M518.4 736l-499.2-499.2c-12.8-12.8-19.2-25.6-19.2-44.8v-192c0-38.4 25.6-64 64-64h192c19.2 0 32 6.4 44.8 19.2l499.2 499.2-281.6 281.6zM1004.8 748.8l-192 192c-25.6 25.6-64 25.6-89.6 0l-115.2-115.2 281.6-281.6 115.2 115.2c25.6 25.6 25.6 64 0 89.6z" />
<glyph unicode="&#xe92d;" glyph-name="phone" d="M768 960h-512c-70.4 0-128-57.6-128-128v-768c0-70.4 57.6-128 128-128h512c70.4 0 128 57.6 128 128v768c0 70.4-57.6 128-128 128zM576 64h-128v128h128v-128zM768 320h-512v384h512v-384z" />
<glyph unicode="&#xe92e;" glyph-name="medal" d="M768 192c0-141.385-114.615-256-256-256s-256 114.615-256 256c0 141.385 114.615 256 256 256s256-114.615 256-256zM896 960h-768l-128-192 230.4-320c51.2 57.6 121.6 96 198.4 115.2l-108.8 140.8h384l-102.4-140.8c76.8-19.2 147.2-57.6 198.4-115.2l224 320-128 192z" />
<glyph unicode="&#xe92f;" glyph-name="board" d="M960 320v576c0 38.4-25.6 64-64 64h-768c-38.4 0-64-25.6-64-64v-576h-64v-128h256l-115.2-153.6c-19.2-25.6-12.8-70.4 12.8-89.6 12.8-6.4 25.6-12.8 38.4-12.8 19.2 0 38.4 6.4 51.2 25.6l172.8 230.4h32v-128h128v128h32l172.8-230.4c12.8-19.2 32-25.6 51.2-25.6 12.8 0 25.6 6.4 38.4 12.8 25.6 19.2 32 64 12.8 89.6l-115.2 153.6h256v128h-64zM192 832h640v-512h-640v512zM320 704h384v-64h-384v64zM320 512h384v-64h-384v64z" />
<glyph unicode="&#xe930;" glyph-name="speech" d="M832 0h-768c-51.2 0-83.2 57.6-51.2 102.4l179.2 236.8v364.8c0 108.8 83.2 192 192 192h448c108.8 0 192-83.2 192-192v-512c0-108.8-83.2-192-192-192zM192 128h640c38.4 0 64 25.6 64 64v512c0 38.4-25.6 64-64 64h-448c-38.4 0-64-25.6-64-64v-384c0-12.8-6.4-25.6-12.8-38.4l-115.2-153.6zM448 640h320v-128h-320v128zM448 384h320v-128h-320v128z" />
<glyph unicode="&#xe931;" glyph-name="paper" d="M256 960v-576h-256v-256c0-108.8 83.2-192 192-192h640c108.8 0 192 83.2 192 192v832h-768zM896 128c0-38.4-25.6-64-64-64h-448v768h512v-704zM512 640h256v-128h-256v128zM512 384h256v-128h-256v128z" />
<glyph unicode="&#xe932;" glyph-name="dislike" d="M896 320h-384v-256c0-76.8-51.2-128-128-128l-192 448h-128c-38.4 0-64 25.6-64 64v448c0 38.4 25.6 64 64 64h704c89.6 0 172.8-64 185.6-153.6l64-332.8c19.2-76.8-38.4-153.6-121.6-153.6z" />
<glyph unicode="&#xe933;" glyph-name="like" d="M896 576h-384v256c0 76.8-51.2 128-128 128l-192-448h-128c-38.4 0-64-25.6-64-64v-448c0-38.4 25.6-64 64-64h704c89.6 0 172.8 64 185.6 153.6l64 332.8c19.2 76.8-38.4 153.6-121.6 153.6z" />
<glyph unicode="&#xe934;" glyph-name="archive-content" d="M960 960h-896c-38.4 0-64-25.6-64-64v-896c0-38.4 25.6-64 64-64h896c38.4 0 64 25.6 64 64v896c0 38.4-25.6 64-64 64zM896 832v-576h-192c-38.4 0-64-25.6-64-64v-64h-256v64c0 38.4-25.6 64-64 64h-192v576h768zM256 704h512v-128h-512v128zM256 512h512v-128h-512v128z" />
<glyph unicode="&#xe935;" glyph-name="folder" d="M1011.2 486.4c-12.8 12.8-32 25.6-51.2 25.6h-704c-25.6 0-51.2-12.8-57.6-38.4l-192-448c-12.8-38.4 0-89.6 57.6-89.6h704c25.6 0 51.2 12.8 57.6 38.4l192 448c12.8 19.2 6.4 44.8-6.4 64zM76.8 524.8c32 70.4 102.4 115.2 179.2 115.2h576v128c0 38.4-25.6 64-64 64h-358.4l-108.8 108.8c-12.8 12.8-25.6 19.2-44.8 19.2h-192c-38.4 0-64-25.6-64-64v-556.8l76.8 185.6z" />
<glyph unicode="&#xe936;" glyph-name="file-blank" d="M896 960h-768c-38.4 0-64-25.6-64-64v-896c0-38.4 25.6-64 64-64h512l320 320v640c0 38.4-25.6 64-64 64zM192 832h640v-512h-256v-256h-384v768z" />
<glyph unicode="&#xe937;" glyph-name="file" d="M896 960h-768c-38.4 0-64-25.6-64-64v-896c0-38.4 25.6-64 64-64h768c38.4 0 64 25.6 64 64v896c0 38.4-25.6 64-64 64zM512 128h-256v128h256v-128zM768 384h-512v128h512v-128zM768 640h-512v128h512v-128z" />
<glyph unicode="&#xe938;" glyph-name="files" d="M960 704h-896c-38.4 0-64-25.6-64-64v-640c0-38.4 25.6-64 64-64h896c38.4 0 64 25.6 64 64v640c0 38.4-25.6 64-64 64zM896 64h-768v512h768v-512zM128 960h768v-128h-768v128z" />
<glyph unicode="&#xe939;" glyph-name="coffee" d="M768 192h64c108.8 0 192 83.2 192 192v192c0 38.4-25.6 64-64 64h-960v-224c0-147.2 76.8-275.2 192-352h-128c-38.4 0-64-25.6-64-64s25.6-64 64-64h832c38.4 0 64 25.6 64 64s-25.6 64-64 64h-256c51.2 32 96 76.8 128 128zM896 512v-128c0-38.4-25.6-64-64-64h-12.8c6.4 32 12.8 64 12.8 96v96h64zM320 960h128v-192h-128v192zM64 960h128v-192h-128v192zM576 960h128v-192h-128v192z" />
<glyph unicode="&#xe93a;" glyph-name="cutlery" d="M448 960v-256h-128v256h-64v-256h-128v256h-64v-384c0-70.4 57.6-128 128-128v-416c0-51.2 44.8-96 96-96s96 44.8 96 96v416c70.4 0 128 57.6 128 128v384h-64zM960 960c-179.2 0-320-140.8-320-320v-384h128v-224c0-51.2 44.8-96 96-96v0c51.2 0 96 44.8 96 96v928z" />
<glyph unicode="&#xe93b;" glyph-name="drag" d="M1024 448l-192 192v-128h-256v256h128l-192 192-192-192h128v-256h-256v128l-192-192 192-192v128h256v-256h-128l192-192 192 192h-128v256h256v-128z" />
<glyph unicode="&#xe93c;" glyph-name="gestures" d="M640 832c0-70.692-57.308-128-128-128s-128 57.308-128 128c0 70.692 57.308 128 128 128s128-57.308 128-128zM256 832c0-70.692-57.308-128-128-128s-128 57.308-128 128c0 70.692 57.308 128 128 128s128-57.308 128-128zM1024 832c0-70.692-57.308-128-128-128s-128 57.308-128 128c0 70.692 57.308 128 128 128s128-57.308 128-128zM640 448c0-70.692-57.308-128-128-128s-128 57.308-128 128c0 70.692 57.308 128 128 128s128-57.308 128-128zM256 448c0-70.692-57.308-128-128-128s-128 57.308-128 128c0 70.692 57.308 128 128 128s128-57.308 128-128zM1024 448c0-70.692-57.308-128-128-128s-128 57.308-128 128c0 70.692 57.308 128 128 128s128-57.308 128-128zM640 64c0-70.692-57.308-128-128-128s-128 57.308-128 128c0 70.692 57.308 128 128 128s128-57.308 128-128zM256 64c0-70.692-57.308-128-128-128s-128 57.308-128 128c0 70.692 57.308 128 128 128s128-57.308 128-128zM1024 64c0-70.692-57.308-128-128-128s-128 57.308-128 128c0 70.692 57.308 128 128 128s128-57.308 128-128z" />
<glyph unicode="&#xe93d;" glyph-name="pinch" d="M1005.25 850.75c25 25 25 65.5 0 90.5s-65.5 25-90.5 0l-160-160-178.75 178.75v-448h448l-178.75 178.75 160 160zM178.75 205.25l-160-160c-25-25-25-65.5 0-90.5 12.5-12.5 28.875-18.75 45.25-18.75s32.75 6.25 45.25 18.75l160 160 178.75-178.75v448h-448l178.75-178.75z" />
<glyph unicode="&#xe93e;" glyph-name="rotate" d="M768 384c0-141.156-114.844-256-256-256s-256 114.844-256 256 114.844 256 256 256v-192l320 256-320 256v-192c-211.75 0-384-172.25-384-384s172.25-384 384-384 384 172.25 384 384h-128z" />
<glyph unicode="&#xe93f;" glyph-name="stretch" d="M754.75 781.25l-160-160c-25-25-25-65.5 0-90.5 12.5-12.5 28.875-18.75 45.25-18.75s32.75 6.25 45.25 18.75l160 160 178.75-178.75v448h-448l178.75-178.75zM429.25 365.25c-25 25-65.5 25-90.5 0l-160-160-178.75 178.75v-448h448l-178.75 178.75 160 160c25 25 25 65.5 0 90.5z" />
<glyph unicode="&#xe940;" glyph-name="tap" d="M192 432.754v239.246c0 88.219 71.75 160 160 160s160-71.781 160-160v-166.719l67.746-7.528c37.235 48.536 60.254 108.484 60.254 174.246 0 158.813-129.187 288-288 288s-288-129.187-288-288c0-99.629 50.899-187.516 128-239.246zM889.597-64l68.23 227.434c34.445 114.808-43.567 232.762-162.7 245.996l-347.128 38.57v224c0 53.020-42.98 96-96 96s-96-42.98-96-96v-480h-64v128h-32c-53.020 0-96-42.98-96-96v-117.332c0-60.778 18.215-119.61 50.543-170.668h775.055z" />
<glyph unicode="&#xe941;" glyph-name="heartbeat" d="M473.6-32c-51.2 44.8-473.6 396.8-473.6 665.6 0 172.8 140.8 307.2 307.2 307.2 76.8 0 147.2-32 204.8-76.8 57.6 51.2 128 76.8 204.8 76.8 172.8 0 307.2-140.8 307.2-307.2 0-268.8-422.4-620.8-473.6-659.2-19.2-25.6-57.6-25.6-76.8-6.4zM307.2 812.8c-96 0-179.2-83.2-179.2-179.2 0-140.8 224-384 384-524.8 134.4 121.6 384 371.2 384 524.8 0 102.4-83.2 179.2-179.2 179.2-57.6 0-115.2-32-147.2-83.2-25.6-38.4-83.2-38.4-108.8 0-38.4 51.2-89.6 83.2-153.6 83.2z" />
<glyph unicode="&#xe942;" glyph-name="pulse" d="M640 0c-25.6 0-51.2 19.2-57.6 44.8l-211.2 620.8-121.6-243.2c-12.8-25.6-32-38.4-57.6-38.4h-192v128h153.6l172.8 345.6c12.8 25.6 38.4 38.4 64 38.4s44.8-19.2 57.6-44.8l204.8-620.8 121.6 243.2c12.8 25.6 32 38.4 57.6 38.4h192v-128h-153.6l-172.8-345.6c-12.8-25.6-32-38.4-57.6-38.4z" />
<glyph unicode="&#xe943;" glyph-name="steps" d="M128 256h256c0 185.6 51.2 217.6 51.2 332.8 0 147.2-83.2 243.2-185.6 243.2v0c-102.4 0-185.6-96-185.6-243.2s64-332.8 64-332.8zM268.8-38.4v0c108.8 0 147.2 96 115.2 230.4h-256l-12.8-51.2c-19.2-96 57.6-179.2 153.6-179.2zM896 384h-256c0 185.6-51.2 217.6-51.2 332.8 0 147.2 83.2 243.2 185.6 243.2v0c102.4 0 185.6-96 185.6-243.2s-64-332.8-64-332.8zM755.2 89.6v0c-108.8 0-147.2 96-115.2 230.4h256l12.8-51.2c19.2-96-57.6-179.2-153.6-179.2z" />
<glyph unicode="&#xe944;" glyph-name="flag-diagonal" d="M454.4-32l-448 832c-12.8 32-6.4 70.4 25.6 89.6 32 12.8 70.4 6.4 89.6-25.6l448-832c12.8-32 6.4-70.4-25.6-89.6-32-12.8-70.4-6.4-89.6 25.6zM1024 595.2c-179.2-160-396.8 38.4-531.2-198.4l-204.8 364.8c134.4 236.8 352 38.4 524.8 198.4l211.2-364.8z" />
<glyph unicode="&#xe945;" glyph-name="flag" d="M128-64c-38.4 0-64 25.6-64 64v896c0 38.4 25.6 64 64 64s64-25.6 64-64v-896c0-38.4-25.6-64-64-64zM960 320h-640v512h640l-128-256z" />
<glyph unicode="&#xe946;" glyph-name="map" d="M934.4 953.6l-294.4-115.2-230.4 115.2c-12.8 6.4-32 6.4-51.2 0l-320-128c-25.6-6.4-38.4-32-38.4-57.6v-768c0-44.8 44.8-76.8 89.6-57.6l294.4 115.2 230.4-115.2c19.2-6.4 32-6.4 51.2 0l320 121.6c25.6 6.4 38.4 32 38.4 57.6v774.4c0 44.8-44.8 76.8-89.6 57.6zM448 793.6l128-64v-627.2l-128 64v627.2zM128 723.2l192 76.8v-627.2l-192-76.8v627.2zM896 166.4l-192-70.4v627.2l192 76.8v-633.6z" />
<glyph unicode="&#xe947;" glyph-name="pin" d="M512 960c-249.6 0-448-198.4-448-448 0-121.6 44.8-236.8 134.4-320 6.4-6.4 262.4-236.8 268.8-243.2 25.6-19.2 64-19.2 83.2 0 6.4 6.4 268.8 236.8 268.8 243.2 89.6 83.2 134.4 198.4 134.4 320 6.4 249.6-192 448-441.6 448zM512 384c-70.4 0-128 57.6-128 128s57.6 128 128 128c70.4 0 128-57.6 128-128s-57.6-128-128-128z" />
<glyph unicode="&#xe948;" glyph-name="world" d="M512 960c-281.6 0-512-230.4-512-512s230.4-512 512-512 512 230.4 512 512-230.4 512-512 512zM512 64c-96 0-179.2 32-249.6 89.6 38.4 51.2 44.8 115.2 6.4 166.4-32 44.8-83.2 89.6-83.2 128 0 51.2 121.6 70.4 160 121.6 44.8 51.2 0 147.2-44.8 198.4 51.2 32 108.8 57.6 179.2 64 12.8-32 57.6-70.4 76.8-96 32-51.2 38.4-83.2 83.2-83.2 12.8 0 128 0 192 19.2 38.4-64 64-140.8 64-224 0-211.2-172.8-384-384-384zM652.8 531.2c-76.8 0-147.2-51.2-140.8-121.6 19.2-160-32-217.6 38.4-249.6 83.2-32 249.6 121.6 243.2 249.6 0 70.4-57.6 121.6-140.8 121.6z" />
<glyph unicode="&#xe949;" glyph-name="gps" d="M256-19.2l-256 896c-12.8 51.2 32 96 83.2 83.2l896-256c57.6-19.2 64-96 6.4-121.6l-422.4-185.6-179.2-422.4c-32-57.6-108.8-51.2-128 6.4zM160 800l172.8-608 121.6 281.6c6.4 12.8 19.2 25.6 32 32l281.6 121.6-608 172.8z" />
<glyph unicode="&#xe94b;" glyph-name="mic" d="M512 320c140.8 0 256 115.2 256 256v128c0 140.8-115.2 256-256 256s-256-115.2-256-256v-128c0-140.8 115.2-256 256-256zM1017.6 505.6c6.4 32-19.2 64-51.2 70.4s-70.4-19.2-70.4-51.2c-32-192-192-332.8-384-332.8s-352 140.8-377.6 326.4c-6.4 38.4-38.4 64-76.8 57.6-32-6.4-57.6-38.4-51.2-70.4 32-230.4 217.6-403.2 441.6-435.2v-134.4h128v134.4c224 25.6 409.6 204.8 441.6 435.2z" />
<glyph unicode="&#xe94c;" glyph-name="brightness" d="M448 960h128v-128h-128v128zM824.337 855.248l90.483-90.547-90.547-90.483-90.483 90.547 90.547 90.483zM896 512h128v-128h-128v128zM828.803 36.273l-90.547 90.483 90.483 90.547 90.547-90.483-90.483-90.547zM448 64h128v-128h-128v128zM190.718 40.746l-90.483 90.547 90.547 90.483 90.483-90.547-90.547-90.483zM0 512h128v-128h-128v128zM195.19 850.782l90.547-90.483-90.483-90.547-90.547 90.483 90.483 90.547zM512 704c-140.8 0-256-115.2-256-256s115.2-256 256-256 256 115.2 256 256-115.2 256-256 256z" />
<glyph unicode="&#xe94d;" glyph-name="camera" d="M960 704h-160l-108.8 166.4c-12.8 12.8-32 25.6-51.2 25.6h-256c-19.2 0-38.4-12.8-51.2-25.6l-108.8-166.4h-160c-38.4 0-64-25.6-64-64v-576c0-38.4 25.6-64 64-64h896c38.4 0 64 25.6 64 64v576c0 38.4-25.6 64-64 64zM512 192c-108.8 0-192 83.2-192 192s83.2 192 192 192 192-83.2 192-192-83.2-192-192-192z" />
<glyph unicode="&#xe94e;" glyph-name="countdown" d="M601.6 537.6c51.2-51.2 51.2-128 0-179.2s-128-51.2-179.2 0c-51.2 51.2-320 499.2-320 499.2s448-268.8 499.2-320zM512-64c-281.6 0-512 230.4-512 512 0 38.4 25.6 64 64 64s64-25.6 64-64c0-211.2 172.8-384 384-384s384 172.8 384 384-172.8 384-384 384c-38.4 0-64 25.6-64 64s25.6 64 64 64c281.6 0 512-230.4 512-512s-230.4-512-512-512z" />
<glyph unicode="&#xe94f;" glyph-name="flash" d="M588.8 960h-243.2c-25.6 0-51.2-19.2-64-44.8l-128-448c-12.8-44.8 19.2-83.2 57.6-83.2h236.8l-96-448 467.2 601.6c32 38.4 0 102.4-51.2 102.4h-192l70.4 236.8c12.8 44.8-19.2 83.2-57.6 83.2z" />
<glyph unicode="&#xe950;" glyph-name="frame" d="M960 704h-102.4l-307.2 243.2c-25.6 19.2-57.6 19.2-76.8 0l-307.2-243.2h-102.4c-38.4 0-64-25.6-64-64v-640c0-38.4 25.6-64 64-64h896c38.4 0 64 25.6 64 64v640c0 38.4-25.6 64-64 64zM512 812.8l134.4-108.8h-268.8l134.4 108.8zM896 64l-256 320-192-256-128 128-192-192v512h768v-512zM384 448c-38.4 0-64-25.6-64-64s25.6-64 64-64 64 25.6 64 64c0 38.4-25.6 64-64 64z" />
<glyph unicode="&#xe951;" glyph-name="image" d="M960-64h-896c-38.4 0-64 25.6-64 64v896c0 38.4 25.6 64 64 64h896c38.4 0 64-25.6 64-64v-896c0-38.4-25.6-64-64-64zM128 64h768v768h-768v-768zM384 704c38.4 0 64-25.6 64-64s-25.6-64-64-64-64 25.6-64 64 25.6 64 64 64zM192 192l128 256 128-128 192 256 192-384z" />
<glyph unicode="&#xe952;" glyph-name="layers" d="M512 576h-448c-38.4 0-64-25.6-64-64v-512c0-38.4 25.6-64 64-64h448c38.4 0 64 25.6 64 64v512c0 38.4-25.6 64-64 64zM704 768h-512v-128h448v-512h128v576c0 38.4-25.6 64-64 64zM896 960h-512v-128h448v-512h128v576c0 38.4-25.6 64-64 64z" />
<glyph unicode="&#xe953;" glyph-name="player" d="M742.4 691.2l-384 256c-44.8 32-102.4 0-102.4-51.2v-512c0-51.2 57.6-83.2 102.4-51.2l384 256c32 25.6 32 76.8 0 102.4zM832 192h192v-128h-192v128zM576 320c-83.2 0-153.6-51.2-179.2-128h-396.8v-128h396.8c25.6-76.8 96-128 179.2-128 108.8 0 192 83.2 192 192s-83.2 192-192 192zM576 64c-38.4 0-64 25.6-64 64s25.6 64 64 64 64-25.6 64-64-25.6-64-64-64z" />
<glyph unicode="&#xe954;" glyph-name="video" d="M704 576v192c0 38.4-25.6 64-64 64h-576c-38.4 0-64-25.6-64-64v-640c0-38.4 25.6-64 64-64h576c38.4 0 64 25.6 64 64v192l320-128v512l-320-128z" />
<glyph unicode="&#xe956;" glyph-name="note" d="M896 960h-576c-38.4 0-64-25.6-64-64v-588.8c-19.2 6.4-38.4 12.8-64 12.8-108.8 0-192-83.2-192-192s83.2-192 192-192 192 83.2 192 192v512h448v-204.8c-19.2 6.4-38.4 12.8-64 12.8-108.8 0-192-83.2-192-192s83.2-192 192-192 192 83.2 192 192v640c0 38.4-25.6 64-64 64z" />
<glyph unicode="&#xe957;" glyph-name="anchor" d="M704 320v-128h121.6c-70.4-64-153.6-108.8-249.6-121.6v518.4c76.8 25.6 128 96 128 179.2 0 108.8-83.2 192-192 192s-192-83.2-192-192c0-83.2 51.2-153.6 128-179.2v-518.4c-96 12.8-179.2 57.6-249.6 121.6h121.6v128h-320v-320h128v83.2c102.4-89.6 243.2-147.2 384-147.2s281.6 57.6 384 147.2v-83.2h128v320h-320zM512 832c38.4 0 64-25.6 64-64s-25.6-64-64-64-64 25.6-64 64 25.6 64 64 64z" />
<glyph unicode="&#xe958;" glyph-name="globe" d="M768 576c0-141.385-114.615-256-256-256s-256 114.615-256 256c0 141.385 114.615 256 256 256s256-114.615 256-256zM902.4 915.2l-108.8-70.4c44.8-64 128-166.4 96-339.2-38.4-211.2-236.8-345.6-448-307.2-172.8 32-243.2 153.6-281.6 217.6l-108.8-70.4c44.8-64 147.2-243.2 396.8-275.2v-134.4h128v134.4c217.6 25.6 396.8 192 441.6 416 38.4 217.6-70.4 358.4-115.2 428.8z" />
<glyph unicode="&#xe959;" glyph-name="key" d="M812.8 960l-396.8-403.2c-32 12.8-64 19.2-96 19.2-179.2 0-320-140.8-320-320s140.8-320 320-320 320 140.8 320 320c0 32-6.4 70.4-19.2 102.4l83.2 89.6v128h128v128h128l64 64v192h-211.2zM288 192c-51.2 0-96 44.8-96 96s44.8 96 96 96 96-44.8 96-96-44.8-96-96-96z" />
<glyph unicode="&#xe95a;" glyph-name="spaceship" d="M1024 960c-192-12.8-352-70.4-473.6-153.6v0c-134.4 64-294.4 38.4-403.2-76.8-19.2-19.2-38.4-44.8-57.6-70.4l160-160c-44.8-76.8-70.4-128-70.4-128l262.4-262.4c0 0 51.2 19.2 128 70.4l160-160c25.6 12.8 51.2 32 70.4 57.6 108.8 108.8 134.4 275.2 76.8 409.6 76.8 128 134.4 281.6 147.2 473.6zM38.4 153.6c51.2 51.2 128 51.2 179.2 0s51.2-128 0-179.2-217.6-38.4-217.6-38.4-12.8 172.8 38.4 217.6z" />
<glyph unicode="&#xe95b;" glyph-name="support" d="M512 960c-281.6 0-512-230.4-512-512s230.4-512 512-512 512 230.4 512 512c0 281.6-230.4 512-512 512zM512 320c-70.4 0-128 57.6-128 128s57.6 128 128 128 128-57.6 128-128c0-70.4-57.6-128-128-128zM512 832c57.6 0 115.2-12.8 166.4-38.4l-102.4-102.4c-44.8 19.2-83.2 19.2-128 0l-102.4 102.4c51.2 25.6 108.8 38.4 166.4 38.4zM128 448c0 57.6 12.8 115.2 38.4 166.4l102.4-102.4c-19.2-44.8-19.2-83.2 0-128l-102.4-102.4c-25.6 51.2-38.4 108.8-38.4 166.4zM512 64c-57.6 0-115.2 12.8-166.4 38.4l102.4 102.4c51.2-12.8 83.2-12.8 134.4 0l102.4-102.4c-57.6-25.6-115.2-38.4-172.8-38.4zM857.6 281.6l-102.4 102.4c12.8 51.2 12.8 83.2 0 134.4l102.4 102.4c25.6-57.6 38.4-115.2 38.4-172.8s-12.8-115.2-38.4-166.4z" />
<glyph unicode="&#xe95c;" glyph-name="bag" d="M896 640h-128v64c0 140.8-115.2 256-256 256s-256-115.2-256-256v-64h-128c-38.4 0-64-25.6-64-64v-576c0-38.4 25.6-64 64-64h768c38.4 0 64 25.6 64 64v576c0 38.4-25.6 64-64 64zM384 704c0 70.4 57.6 128 128 128s128-57.6 128-128v-64h-256v64z" />
<glyph unicode="&#xe95d;" glyph-name="bag-add" d="M896 704h-128c0 140.8-115.2 256-256 256s-256-115.2-256-256h-128c-38.4 0-64-25.6-64-64v-640c0-38.4 25.6-64 64-64h768c38.4 0 64 25.6 64 64v640c0 38.4-25.6 64-64 64zM512 832c70.4 0 128-57.6 128-128h-256c0 70.4 57.6 128 128 128zM704 256h-128v-128h-128v128h-128v128h128v128h128v-128h128v-128z" />
<glyph unicode="&#xe95e;" glyph-name="bag-remove" d="M896 704h-128c0 140.8-115.2 256-256 256s-256-115.2-256-256h-128c-38.4 0-64-25.6-64-64v-640c0-38.4 25.6-64 64-64h768c38.4 0 64 25.6 64 64v640c0 38.4-25.6 64-64 64zM512 832c70.4 0 128-57.6 128-128h-256c0 70.4 57.6 128 128 128zM704 256h-384v128h384v-128z" />
<glyph unicode="&#xe95f;" glyph-name="credit-card" d="M1024 640v128c0 38.4-25.6 64-64 64h-896c-38.4 0-64-25.6-64-64v-128h1024zM0 512v-384c0-38.4 25.6-64 64-64h896c38.4 0 64 25.6 64 64v384h-1024zM384 256h-256v64h256v-64zM896 256h-128v64h128v-64z" />
<glyph unicode="&#xe960;" glyph-name="delivery" d="M979.2 569.6l-166.4 57.6-115.2 294.4c-6.4 25.6-32 38.4-57.6 38.4h-576c-38.4 0-64-25.6-64-64v-768c0-38.4 25.6-64 64-64h211.2c38.4-76.8 115.2-128 204.8-128s166.4 51.2 204.8 134.4c6.4 0 12.8-6.4 19.2-6.4h256c38.4 0 64 25.6 64 64v384c0 25.6-19.2 51.2-44.8 57.6zM896 192h-192c0 0 0 0 0 0-12.8 108.8-108.8 192-224 192s-204.8-83.2-217.6-192h-134.4v640h467.2l108.8-281.6c6.4-19.2 19.2-32 38.4-38.4l153.6-44.8v-275.2zM448 768h-128v-192c0-38.4 25.6-64 64-64h192v128h-128v128z" />
<glyph unicode="&#xe961;" glyph-name="gift" d="M832 384h-640c-38.4 0-64-25.6-64-64v-320c0-38.4 25.6-64 64-64h640c38.4 0 64 25.6 64 64v320c0 38.4-25.6 64-64 64zM883.2 704c6.4 19.2 12.8 38.4 12.8 64 0 108.8-83.2 192-192 192-89.6 0-153.6-51.2-192-108.8-38.4 57.6-102.4 108.8-192 108.8-108.8 0-192-83.2-192-192 0-25.6 6.4-44.8 12.8-64h-140.8v-256h1024v256h-140.8zM704 832c38.4 0 64-25.6 64-64s-25.6-64-64-64h-115.2c12.8 57.6 44.8 128 115.2 128zM256 768c0 38.4 25.6 64 64 64 70.4 0 102.4-70.4 115.2-128h-115.2c-38.4 0-64 25.6-64 64z" />
<glyph unicode="&#xe962;" glyph-name="tag" d="M1004.8 428.8l-512 512c-12.8 12.8-25.6 19.2-44.8 19.2h-384c-38.4 0-64-25.6-64-64v-384c0-19.2 6.4-32 19.2-44.8l512-512c12.8-12.8 25.6-19.2 44.8-19.2s32 6.4 44.8 19.2l384 384c25.6 25.6 25.6 64 0 89.6zM256 640c-38.4 0-64 25.6-64 64s25.6 64 64 64c38.4 0 64-25.6 64-64s-25.6-64-64-64z" />
<glyph unicode="&#xe963;" glyph-name="flag-finish" d="M0 960v-1024h128v256h832v768h-960zM256 320h-128v128h128v-128zM256 704h-128v128h128v-128zM448 512h-128v128h128v-128zM640 320h-128v128h128v-128zM640 704h-128v128h128v-128zM832 512h-128v128h128v-128z" />
<glyph unicode="&#xe964;" glyph-name="user-run" d="M960 832c0-70.692-57.308-128-128-128s-128 57.308-128 128c0 70.692 57.308 128 128 128s128-57.308 128-128zM1005.25 621.25c-25 25-65.5 25-90.5 0l-82.75-82.75-274.75 274.75c-17.188 17.219-42.563 23.188-65.5 15.469l-192-64c-33.531-11.187-51.656-47.437-40.469-80.969s47.25-51.75 80.969-40.469l154.469 51.5 57.684-57.684-126.402-126.379c-30.937-30.969-46.188-73.719-41.875-117.281 4.344-43.5 27.688-82.375 69.25-109.719l94.344-50.75-88.969-133.469c-19.594-29.406-11.656-69.156 17.75-88.75 29.307-19.566 69.112-11.683 88.75 17.75l128 192c20.926 31.39 10.266 73.966-22.937 91.875l-151.156 80.969c-9.263 6.193-10.338 19.162-2.625 26.875l126.375 126.375 143.844-143.844c25.001-25.001 65.499-25.001 90.5 0l128 128c25 25 25 65.5 0 90.5zM274.75 301.25l-256-256c-25-25-25-65.5 0-90.5 12.5-12.5 28.875-18.75 45.25-18.75s32.75 6.25 45.25 18.75l256 256c25 25 25 65.5 0 90.5s-65.5 25-90.5 0z" />
<glyph unicode="&#xe965;" glyph-name="desktop" d="M960 960h-896c-38.4 0-64-25.6-64-64v-704c0-38.4 25.6-64 64-64h320v-64h-192v-128h640v128h-192v64h320c38.4 0 64 25.6 64 64v704c0 38.4-25.6 64-64 64zM896 832v-448h-768v448h768z" />
<glyph unicode="&#xe966;" glyph-name="headphones" d="M960 358.4v281.6c0 179.2-140.8 320-320 320h-256c-179.2 0-320-140.8-320-320v-275.2c-38.4-51.2-64-108.8-64-172.8 0-140.8 115.2-256 256-256 25.6 0 57.6 6.4 83.2 12.8l44.8 19.2v448l-44.8 19.2c-51.2 12.8-102.4 19.2-147.2 6.4v198.4c0 108.8 83.2 192 192 192h256c108.8 0 192-83.2 192-192v-198.4c-44.8 12.8-96 12.8-147.2-6.4l-44.8-19.2v-448l44.8-12.8c32-12.8 57.6-12.8 83.2-12.8 140.8 0 256 115.2 256 256 0 57.6-25.6 115.2-64 160z" />
<glyph unicode="&#xe967;" glyph-name="laptop" d="M960 384h-128v320h-640v-320h-128v320c0 70.4 57.6 128 128 128h640c70.4 0 128-57.6 128-128v-320zM896 64h-768c-70.4 0-128 57.6-128 128v64h1024v-64c0-70.4-57.6-128-128-128z" />
<glyph unicode="&#xe969;" glyph-name="navigation" d="M448 704h128v-128h-128v128zM896 768h-89.6c-51.2 115.2-166.4 192-294.4 192s-243.2-76.8-294.4-192h-89.6c-70.4 0-128-57.6-128-128v-576c0-70.4 57.6-128 128-128h768c70.4 0 128 57.6 128 128v576c0 70.4-57.6 128-128 128zM832 640h64v-486.4l-192 192c64 96 128 211.2 128 294.4zM460.8 153.6c12.8-19.2 32-25.6 51.2-25.6s38.4 6.4 51.2 25.6c12.8 12.8 38.4 44.8 70.4 89.6l172.8-172.8h-588.8l172.8 172.8c32-44.8 57.6-76.8 70.4-89.6zM512 832c108.8 0 192-83.2 192-192 0-70.4-102.4-224-192-345.6-89.6 121.6-192 275.2-192 345.6 0 108.8 83.2 192 192 192zM192 640c0-83.2 64-198.4 128-294.4l-192-192v486.4h64z" />
<glyph unicode="&#xe96b;" glyph-name="print" d="M192 960h640v-192h-640v192zM960 640h-896c-38.4 0-64-25.6-64-64v-384c0-38.4 25.6-64 64-64h128v-128c0-38.4 25.6-64 64-64h512c38.4 0 64 25.6 64 64v128h128c38.4 0 64 25.6 64 64v384c0 38.4-25.6 64-64 64zM704 64h-384v320h384v-320z" />
<glyph unicode="&#xe96c;" glyph-name="tablet" d="M832 960h-640c-70.4 0-128-57.6-128-128v-768c0-70.4 57.6-128 128-128h640c70.4 0 128 57.6 128 128v768c0 70.4-57.6 128-128 128zM576 64h-128v128h128v-128zM832 320h-640v512h640v-512z" />
<glyph unicode="&#xe96d;" glyph-name="tablet-reader" d="M896-64h-768c-70.4 0-128 57.6-128 128v768c0 70.4 57.6 128 128 128h768c70.4 0 128-57.6 128-128v-768c0-70.4-57.6-128-128-128zM128 832v-768h768v768h-768zM256 640h512v-128h-512v128zM256 384h320v-128h-320v128z" />
<glyph unicode="&#xe96e;" glyph-name="tv" d="M960 704h-358.4l147.2 147.2c25.6 25.6 25.6 64 0 89.6s-64 25.6-89.6 0l-198.4-198.4-83.2 128c-25.6 25.6-64 32-96 12.8-25.6-19.2-32-57.6-12.8-89.6l64-89.6h-268.8c-38.4 0-64-25.6-64-64v-640c0-38.4 25.6-64 64-64h896c38.4 0 64 25.6 64 64v640c0 38.4-25.6 64-64 64zM896 64h-768v512h768v-512zM192 512h640v-384h-640v384z" />
<glyph unicode="&#xe96f;" glyph-name="watch" d="M768 832v64c0 38.4-25.6 64-64 64h-384c-38.4 0-64-25.6-64-64v-64c-70.4 0-128-57.6-128-128v-512c0-70.4 57.6-128 128-128v-64c0-38.4 25.6-64 64-64h384c38.4 0 64 25.6 64 64v64c70.4 0 128 57.6 128 128v512c0 70.4-57.6 128-128 128zM256 192v512h512v-512h-512z" />
<glyph unicode="&#xe970;" glyph-name="wifi" d="M608 160c0-53.019-42.981-96-96-96s-96 42.981-96 96c0 53.019 42.981 96 96 96s96-42.981 96-96zM736 320c-57.6 64-140.8 96-224 96s-166.4-32-224-96l-89.6 89.6c83.2 89.6 192 134.4 313.6 134.4s230.4-44.8 313.6-134.4l-89.6-89.6zM512 832c-192 0-371.2-70.4-512-204.8l89.6-89.6c115.2 108.8 262.4 166.4 422.4 166.4s307.2-57.6 422.4-172.8l89.6 96c-140.8 134.4-320 204.8-512 204.8z" />
<glyph unicode="&#xe971;" glyph-name="capitalize" d="M704 896h320v-128h-320v128zM704 640h320v-128h-320v128zM704 384h320v-128h-320v128zM0 128h1024v-128h-1024v128zM439.395 320h136.605l-215.238 512h-145.523l-215.238-512h136.605l53.801 128h195.187l53.801-128zM244.207 576l43.793 104.188 43.793-104.188h-87.587z" />
<glyph unicode="&#xe972;" glyph-name="text" d="M512 960h-448v-256h64l46.311 92.621c10.841 21.683 33.002 35.379 57.243 35.379h216.446v-721.871c0-27.548-17.628-52.004-43.761-60.716l-148.239-49.413v-64h512v64l-148.239 49.413c-26.134 8.711-43.761 33.168-43.761 60.716v721.871h216.446c24.241 0 46.403-13.696 57.244-35.379l46.31-92.621h64v256h-448z" />
<glyph unicode="&#xe973;" glyph-name="list-bullet" d="M256 832c0-70.692-57.308-128-128-128s-128 57.308-128 128c0 70.692 57.308 128 128 128s128-57.308 128-128zM256 448c0-70.692-57.308-128-128-128s-128 57.308-128 128c0 70.692 57.308 128 128 128s128-57.308 128-128zM256 64c0-70.692-57.308-128-128-128s-128 57.308-128 128c0 70.692 57.308 128 128 128s128-57.308 128-128zM384 896h640v-128h-640v128zM384 512h640v-128h-640v128zM384 128h640v-128h-640v128z" />
<glyph unicode="&#xe974;" glyph-name="quote" d="M193.512 668.12c-75.845-94.806-86.788-190.355-64.504-257.21 84.217 66.878 201.259 52.874 272.529-13.707 71.994-67.258 78.189-185.486 32.252-262.047-38.643-64.404-106.504-103.206-182.223-103.206-172.323 0-251.566 151.986-251.566 322.52 0 110.732 28.22 209.907 84.661 297.524s141.64 158.303 255.597 212.057l30.64-59.667c-68.804-29.027-127.933-74.448-177.386-136.264zM754.696 668.12c-75.844-94.806-86.788-190.355-64.504-257.21 37.628 29.027 78.48 43.54 122.557 43.54 115.945 0 211.25-77.221 211.25-211.251 0-123.246-94.582-211.251-211.251-211.251-172.323 0-251.565 151.986-251.565 322.52 0 110.732 28.22 209.907 84.661 297.524s141.64 158.303 255.597 212.057l30.639-59.666c-68.804-29.027-127.932-74.449-177.385-136.265z" />
<glyph unicode="&#xe975;" glyph-name="attach" d="M320 640v-256c0-108.8 83.2-192 192-192s192 83.2 192 192v288c0 160-128 288-288 288s-288-128-288-288v-352c0-211.2 172.8-384 384-384s384 172.8 384 384v384h-128v-384c0-140.8-115.2-256-256-256s-256 115.2-256 256v352c0 89.6 70.4 160 160 160s160-70.4 160-160v-288c0-38.4-25.6-64-64-64s-64 25.6-64 64v256h-128z" />
<glyph unicode="&#xe976;" glyph-name="bell" d="M640 64h-256c0-70.4 57.6-128 128-128s128 57.6 128 128zM960 256h-32c-44.8 44.8-96 108.8-96 192v192c0 179.2-140.8 320-320 320s-320-140.8-320-320v-192c0-83.2-51.2-147.2-96-192h-32c-38.4 0-64-25.6-64-64s25.6-64 64-64h896c38.4 0 64 25.6 64 64s-25.6 64-64 64z" />
<glyph unicode="&#xe977;" glyph-name="check-small" d="M793.6 576l-89.6 89.6-256-256-128 128-89.6-89.6 217.6-217.6z" />
<glyph unicode="&#xe978;" glyph-name="check-square" d="M851.2 812.8l-403.2-403.2-83.2 83.2c-25.6 25.6-64 25.6-89.6 0s-25.6-64 0-89.6l128-128c12.8-12.8 25.6-19.2 44.8-19.2s32 6.4 44.8 19.2l448 448c25.6 25.6 25.6 64 0 89.6s-64 25.6-89.6 0zM64-64h768c38.4 0 64 25.6 64 64v320c0 38.4-25.6 64-64 64s-64-25.6-64-64v-256h-640v640h320c38.4 0 64 25.6 64 64s-25.6 64-64 64h-384c-38.4 0-64-25.6-64-64v-768c0-38.4 25.6-64 64-64z" />
<glyph unicode="&#xe979;" glyph-name="check" d="M915.2 812.8l-595.2-595.2-211.2 211.2c-25.6 25.6-64 25.6-89.6 0s-25.6-64 0-89.6l256-256c12.8-12.8 25.6-19.2 44.8-19.2s32 6.4 44.8 19.2l640 640c25.6 25.6 25.6 64 0 89.6s-64 25.6-89.6 0z" />
<glyph unicode="&#xe97a;" glyph-name="edit-box" d="M960 512c-38.4 0-64-25.6-64-64v-384h-768v768h384c38.4 0 64 25.6 64 64s-25.6 64-64 64h-448c-38.4 0-64-25.6-64-64v-896c0-38.4 25.6-64 64-64h896c38.4 0 64 25.6 64 64v448c0 38.4-25.6 64-64 64zM915.2 940.8l-512-512c-25.6-25.6-25.6-64 0-89.6 12.8-12.8 25.6-19.2 44.8-19.2s32 6.4 44.8 19.2l512 512c25.6 25.6 25.6 64 0 89.6s-64 25.6-89.6 0z" />
<glyph unicode="&#xe97b;" glyph-name="eye" d="M512 64c230.4 0 409.6 198.4 486.4 313.6 32 44.8 32 102.4 0 147.2-76.8 108.8-256 307.2-486.4 307.2s-409.6-198.4-486.4-313.6c-32-44.8-32-102.4 0-140.8 76.8-115.2 256-313.6 486.4-313.6zM512 640c108.8 0 192-83.2 192-192s-83.2-192-192-192-192 83.2-192 192 83.2 192 192 192z" />
<glyph unicode="&#xe97c;" glyph-name="filter" d="M960 768h-256c-38.4 0-64-25.6-64-64s25.6-64 64-64h256c38.4 0 64 25.6 64 64s-25.6 64-64 64zM320 896c-83.2 0-153.6-57.6-179.2-128-6.4 0-6.4 0-12.8 0h-64c-38.4 0-64-25.6-64-64s25.6-64 64-64h64c6.4 0 6.4 0 12.8 0 25.6-70.4 96-128 179.2-128 108.8 0 192 83.2 192 192s-83.2 192-192 192zM64 128h256c38.4 0 64 25.6 64 64s-25.6 64-64 64h-256c-38.4 0-64-25.6-64-64s25.6-64 64-64zM960 256h-64c-6.4 0-6.4 0-12.8 0-25.6 76.8-96 128-179.2 128-108.8 0-192-83.2-192-192s83.2-192 192-192c83.2 0 153.6 57.6 179.2 128 6.4 0 6.4 0 12.8 0h64c38.4 0 64 25.6 64 64s-25.6 64-64 64z" />
<glyph unicode="&#xe97d;" glyph-name="add" d="M960 512h-384v384c0 38.4-25.6 64-64 64s-64-25.6-64-64v-384h-384c-38.4 0-64-25.6-64-64s25.6-64 64-64h384v-384c0-38.4 25.6-64 64-64s64 25.6 64 64v384h384c38.4 0 64 25.6 64 64s-25.6 64-64 64z" />
<glyph unicode="&#xe97e;" glyph-name="remove" d="M940.8 876.8c-25.6 25.6-64 25.6-89.6 0l-339.2-339.2-339.2 339.2c-25.6 25.6-64 25.6-89.6 0s-25.6-64 0-89.6l339.2-339.2-339.2-339.2c-25.6-25.6-25.6-64 0-89.6 12.8-12.8 25.6-19.2 44.8-19.2s32 6.4 44.8 19.2l339.2 339.2 339.2-339.2c12.8-12.8 32-19.2 44.8-19.2s32 6.4 44.8 19.2c25.6 25.6 25.6 64 0 89.6l-339.2 339.2 339.2 339.2c25.6 25.6 25.6 64 0 89.6z" />
<glyph unicode="&#xe97f;" glyph-name="trash" d="M320 512h128v-384h-128v384zM576 512h128v-384h-128v384zM768 896c0 38.4-25.6 64-64 64h-384c-38.4 0-64-25.6-64-64v-128h-256v-128h64v-640c0-38.4 25.6-64 64-64h768c38.4 0 64 25.6 64 64v640h64v128h-256v128zM384 832h256v-64h-256v64zM832 640v-576h-640v576h640z" />
<glyph unicode="&#xe980;" glyph-name="zoom-in" d="M812.8 236.8c57.6 76.8 89.6 166.4 89.6 268.8 0 249.6-198.4 454.4-448 454.4s-454.4-204.8-454.4-454.4c0-249.6 204.8-454.4 454.4-454.4 102.4 0 198.4 32 268.8 89.6l192-192c12.8-12.8 32-19.2 44.8-19.2s32 6.4 44.8 19.2c25.6 25.6 25.6 64 0 89.6l-192 198.4zM454.4 185.6c-179.2 0-326.4 140.8-326.4 320s147.2 326.4 326.4 326.4 326.4-147.2 326.4-326.4-147.2-320-326.4-320zM512 704h-128v-128h-128v-128h128v-128h128v128h128v128h-128z" />
<glyph unicode="&#xe981;" glyph-name="zoom" d="M812.8 236.8c57.6 76.8 89.6 166.4 89.6 268.8 0 249.6-198.4 454.4-448 454.4s-454.4-204.8-454.4-454.4c0-249.6 204.8-454.4 454.4-454.4 102.4 0 198.4 32 268.8 89.6l192-192c12.8-12.8 32-19.2 44.8-19.2s32 6.4 44.8 19.2c25.6 25.6 25.6 64 0 89.6l-192 198.4zM454.4 185.6c-179.2 0-326.4 140.8-326.4 320s147.2 326.4 326.4 326.4 326.4-147.2 326.4-326.4-147.2-320-326.4-320z" />
<glyph unicode="&#xe982;" glyph-name="alert-warning" d="M608 96c0-53.019-42.981-96-96-96s-96 42.981-96 96c0 53.019 42.981 96 96 96s96-42.981 96-96zM448 960h128v-640h-128v640z" />
<glyph unicode="&#xe983;" glyph-name="alert-help" d="M608 96c0-53.019-42.981-96-96-96s-96 42.981-96 96c0 53.019 42.981 96 96 96s96-42.981 96-96zM512 960c-108.8 0-204.8-70.4-243.2-172.8l-19.2-57.6 121.6-44.8 19.2 57.6c19.2 57.6 70.4 89.6 121.6 89.6 70.4 0 128-57.6 128-128 0-38.4-12.8-51.2-64-83.2-51.2-44.8-128-96-128-236.8v-64h128v64c0 76.8 32 96 76.8 128 51.2 38.4 115.2 83.2 115.2 192 0 140.8-115.2 256-256 256z" />
<glyph unicode="&#xe984;" glyph-name="alert-info" d="M576 512c0 38.4-25.6 64-64 64h-192v-128h128v-384h-128v-128h384v128h-128v448zM576 800c0-53.019-42.981-96-96-96s-96 42.981-96 96c0 53.019 42.981 96 96 96s96-42.981 96-96z" />
<glyph unicode="&#xe985;" glyph-name="archive" d="M192 832h640c38.4 0 64 25.6 64 64s-25.6 64-64 64h-640c-38.4 0-64-25.6-64-64s25.6-64 64-64zM960 704h-896c-38.4 0-64-25.6-64-64v-640c0-38.4 25.6-64 64-64h896c38.4 0 64 25.6 64 64v640c0 38.4-25.6 64-64 64zM768 256h-512v256h128v-128h256v128h128v-256z" />
<glyph unicode="&#xe986;" glyph-name="signal" d="M768 896h256v-896h-256v896zM384 640h256v-640h-256v640zM0 384h256v-384h-256v384z" />
<glyph unicode="&#xe987;" glyph-name="chat-stroke" d="M512 960c-281.6 0-512-198.4-512-448s230.4-448 512-448c12.8 0 25.6 0 38.4 0l345.6-128v281.6c76.8 76.8 128 179.2 128 294.4 0 249.6-230.4 448-512 448zM768 268.8v-147.2l-198.4 70.4c0 0-44.8 0-57.6 0-211.2 0-384 140.8-384 320s172.8 320 384 320 384-140.8 384-320c0-140.8-128-243.2-128-243.2z" />
<glyph unicode="&#xe988;" glyph-name="chat-fill" d="M512 960c-281.6 0-512-198.4-512-448s230.4-448 512-448c25.6 0 51.2 0 70.4 6.4l313.6-134.4v281.6c76.8 76.8 128 179.2 128 294.4 0 249.6-230.4 448-512 448z" />
<glyph unicode="&#xe989;" glyph-name="disk" d="M748.8 940.8c-12.8 12.8-25.6 19.2-44.8 19.2h-64v-192c0-38.4-25.6-64-64-64h-320c-38.4 0-64 25.6-64 64v192h-128c-38.4 0-64-25.6-64-64v-896c0-38.4 25.6-64 64-64h896c38.4 0 64 25.6 64 64v640c0 19.2-6.4 32-19.2 44.8l-256 256zM832 64h-640v192c0 38.4 25.6 64 64 64h512c38.4 0 64-25.6 64-64v-192zM448 960h128v-192h-128v192z" />
<glyph unicode="&#xe98a;" glyph-name="heart" d="M742.4 960c-96 0-179.2-51.2-230.4-128-51.2 76.8-134.4 128-230.4 128-153.6 0-281.6-128-281.6-281.6 0-281.6 512-697.6 512-697.6s512 416 512 697.6c0 153.6-128 281.6-281.6 281.6z" />
<glyph unicode="&#xe98b;" glyph-name="star" d="M966.4 614.4l-275.2 38.4-121.6 249.6c-19.2 44.8-96 44.8-115.2 0l-121.6-249.6-275.2-38.4c-57.6-12.8-76.8-76.8-38.4-108.8l198.4-192-44.8-275.2c-6.4-51.2 44.8-89.6 96-70.4l249.6 128 249.6-128c44.8-25.6 102.4 12.8 96 70.4l-44.8 275.2 198.4 192c25.6 32 6.4 96-51.2 108.8z" />
<glyph unicode="&#xe98c;" glyph-name="grid" d="M384 960h-320c-38.4 0-64-25.6-64-64v-320c0-38.4 25.6-64 64-64h320c38.4 0 64 25.6 64 64v320c0 38.4-25.6 64-64 64zM960 960h-320c-38.4 0-64-25.6-64-64v-320c0-38.4 25.6-64 64-64h320c38.4 0 64 25.6 64 64v320c0 38.4-25.6 64-64 64zM384 384h-320c-38.4 0-64-25.6-64-64v-320c0-38.4 25.6-64 64-64h320c38.4 0 64 25.6 64 64v320c0 38.4-25.6 64-64 64zM960 384h-320c-38.4 0-64-25.6-64-64v-320c0-38.4 25.6-64 64-64h320c38.4 0 64 25.6 64 64v320c0 38.4-25.6 64-64 64z" />
<glyph unicode="&#xe98d;" glyph-name="grid-small" d="M0 960h256v-256h-256v256zM384 960h256v-256h-256v256zM768 960h256v-256h-256v256zM0 576h256v-256h-256v256zM384 576h256v-256h-256v256zM768 576h256v-256h-256v256zM0 192h256v-256h-256v256zM384 192h256v-256h-256v256zM768 192h256v-256h-256v256z" />
<glyph unicode="&#xe98e;" glyph-name="lab" d="M915.2 147.2l-275.2 326.4v230.4h64c38.4 0 64 25.6 64 64v128c0 38.4-25.6 64-64 64h-384c-38.4 0-64-25.6-64-64v-128c0-38.4 25.6-64 64-64h64v-230.4l-275.2-326.4c-32-38.4-38.4-89.6-19.2-134.4s64-76.8 115.2-76.8h620.8c51.2 0 96 25.6 115.2 76.8 19.2 44.8 12.8 96-25.6 134.4z" />
<glyph unicode="&#xe98f;" glyph-name="link" d="M704 960c-83.2 0-166.4-32-224-96l-76.8-70.4c-25.6-25.6-25.6-64 0-89.6s64-25.6 89.6 0l76.8 76.8c70.4 70.4 198.4 70.4 268.8 0 38.4-38.4 57.6-89.6 57.6-140.8s-19.2-102.4-57.6-134.4l-70.4-76.8c-25.6-25.6-25.6-64 0-89.6 12.8-12.8 32-19.2 44.8-19.2s32 6.4 44.8 19.2l76.8 76.8c57.6 57.6 89.6 140.8 89.6 224s-32 166.4-96 224c-57.6 64-140.8 96-224 96zM531.2 192l-76.8-76.8c-70.4-70.4-198.4-70.4-268.8 0-38.4 38.4-57.6 89.6-57.6 140.8s19.2 102.4 57.6 134.4l70.4 76.8c25.6 25.6 25.6 64 0 89.6s-64 25.6-89.6 0l-70.4-76.8c-64-57.6-96-140.8-96-224s32-166.4 96-224c57.6-64 140.8-96 224-96s166.4 32 224 96l76.8 76.8c25.6 25.6 25.6 64 0 89.6s-64 19.2-89.6-6.4zM601.6 627.2l-268.8-268.8c-25.6-25.6-25.6-64 0-89.6 12.8-12.8 32-19.2 44.8-19.2s32 6.4 44.8 19.2l268.8 268.8c25.6 25.6 25.6 64 0 89.6s-64 25.6-89.6 0z" />
<glyph unicode="&#xe990;" glyph-name="link-broken" d="M857.6 339.2l76.8 76.8c57.6 57.6 89.6 140.8 89.6 224s-32 166.4-96 224c-57.6 64-140.8 96-224 96s-166.4-32-224-96l-76.8-70.4c-25.6-25.6-25.6-64 0-89.6s64-25.6 89.6 0l76.8 76.8c70.4 70.4 198.4 70.4 268.8 0 38.4-38.4 57.6-89.6 57.6-140.8s-19.2-102.4-57.6-134.4l-70.4-76.8c-25.6-25.6-25.6-64 0-89.6 12.8-12.8 32-19.2 44.8-19.2s32 6.4 44.8 19.2zM531.2 192l-76.8-76.8c-70.4-70.4-198.4-70.4-268.8 0-38.4 38.4-57.6 89.6-57.6 140.8s19.2 102.4 57.6 134.4l70.4 76.8c25.6 25.6 25.6 64 0 89.6s-64 25.6-89.6 0l-70.4-76.8c-64-57.6-96-140.8-96-224s32-166.4 96-224c57.6-64 140.8-96 224-96s166.4 32 224 96l76.8 76.8c25.6 25.6 25.6 64 0 89.6s-64 19.2-89.6-6.4zM601.6 627.2l-268.8-268.8c-25.6-25.6-25.6-64 0-89.6 12.8-12.8 32-19.2 44.8-19.2s32 6.4 44.8 19.2l268.8 268.8c25.6 25.6 25.6 64 0 89.6s-64 25.6-89.6 0zM147.2 723.2c12.8-12.8 25.6-19.2 44.8-19.2s32 6.4 44.8 19.2c25.6 25.6 25.6 64 0 89.6l-128 128c-25.6 25.6-64 25.6-89.6 0s-25.6-64 0-89.6l128-128zM876.8 172.8c-25.6 25.6-64 25.6-89.6 0s-25.6-64 0-89.6l128-128c12.8-12.8 32-19.2 44.8-19.2s32 6.4 44.8 19.2c25.6 25.6 25.6 64 0 89.6l-128 128z" />
<glyph unicode="&#xe991;" glyph-name="hamburger" d="M960 512h-896c-38.4 0-64-25.6-64-64s25.6-64 64-64h896c38.4 0 64 25.6 64 64s-25.6 64-64 64zM960 896h-896c-38.4 0-64-25.6-64-64s25.6-64 64-64h896c38.4 0 64 25.6 64 64s-25.6 64-64 64zM960 128h-896c-38.4 0-64-25.6-64-64s25.6-64 64-64h896c38.4 0 64 25.6 64 64s-25.6 64-64 64z" />
<glyph unicode="&#xe992;" glyph-name="menu" d="M64 384h448c38.4 0 64 25.6 64 64s-25.6 64-64 64h-448c-38.4 0-64-25.6-64-64s25.6-64 64-64zM960 896h-896c-38.4 0-64-25.6-64-64s25.6-64 64-64h896c38.4 0 64 25.6 64 64s-25.6 64-64 64zM960 128h-896c-38.4 0-64-25.6-64-64s25.6-64 64-64h896c38.4 0 64 25.6 64 64s-25.6 64-64 64z" />
<glyph unicode="&#xe993;" glyph-name="paragraph" d="M384 960h-320c-38.4 0-64-25.6-64-64v-320c0-38.4 25.6-64 64-64h320c38.4 0 64 25.6 64 64v320c0 38.4-25.6 64-64 64zM384 384h-320c-38.4 0-64-25.6-64-64v-320c0-38.4 25.6-64 64-64h320c38.4 0 64 25.6 64 64v320c0 38.4-25.6 64-64 64zM576 896h448v-128h-448v128zM576 704h448v-128h-448v128zM576 320h448v-128h-448v128zM576 128h448v-128h-448v128z" />
<glyph unicode="&#xe994;" glyph-name="share" d="M768 576c108.8 0 192 83.2 192 192s-83.2 192-192 192-192-83.2-192-192c0-12.8 0-25.6 6.4-38.4l-204.8-128c-38.4 19.2-76.8 38.4-121.6 38.4-108.8 0-192-83.2-192-192s83.2-192 192-192c44.8 0 83.2 19.2 121.6 44.8l204.8-128c-6.4-19.2-6.4-32-6.4-44.8 0-108.8 83.2-192 192-192s192 83.2 192 192-83.2 192-192 192c-44.8 0-83.2-19.2-121.6-44.8l-204.8 128c6.4 19.2 6.4 32 6.4 44.8s0 25.6-6.4 38.4l204.8 128c38.4-19.2 76.8-38.4 121.6-38.4z" />
<glyph unicode="&#xe995;" glyph-name="small-add" d="M576 704h-128v-192h-192v-128h192v-192h128v192h192v128h-192z" />
<glyph unicode="&#xe996;" glyph-name="small-delete" d="M256 512h512v-128h-512v128z" />
<glyph unicode="&#xe997;" glyph-name="small-remove" d="M646.4 672l-134.4-134.4-134.4 134.4-89.6-89.6 134.4-134.4-134.4-134.4 89.6-89.6 134.4 134.4 134.4-134.4 89.6 89.6-134.4 134.4 134.4 134.4z" />
<glyph unicode="&#xe998;" glyph-name="tile" d="M640 960h-576c-38.4 0-64-25.6-64-64v-64c0-38.4 25.6-64 64-64h576c38.4 0 64 25.6 64 64v64c0 38.4-25.6 64-64 64zM640 576h-576c-38.4 0-64-25.6-64-64v-64c0-38.4 25.6-64 64-64h576c38.4 0 64 25.6 64 64v64c0 38.4-25.6 64-64 64zM640 192h-576c-38.4 0-64-25.6-64-64v-64c0-38.4 25.6-64 64-64h576c38.4 0 64 25.6 64 64v64c0 38.4-25.6 64-64 64zM960 960h-64c-38.4 0-64-25.6-64-64v-832c0-38.4 25.6-64 64-64h64c38.4 0 64 25.6 64 64v832c0 38.4-25.6 64-64 64z" />
<glyph unicode="&#xe999;" glyph-name="clock" d="M512 960c-281.6 0-512-230.4-512-512s230.4-512 512-512 512 230.4 512 512-230.4 512-512 512zM512 64c-211.2 0-384 172.8-384 384s172.8 384 384 384 384-172.8 384-384-172.8-384-384-384zM576 704h-128v-320h320v128h-192z" />
<glyph unicode="&#xe99a;" glyph-name="alert-square" d="M960 960h-896c-38.4 0-64-25.6-64-64v-896c0-38.4 25.6-64 64-64h896c38.4 0 64 25.6 64 64v896c0 38.4-25.6 64-64 64zM896 64h-768v768h768v-768zM448 704h128v-320h-128v320zM576 256c0-35.346-28.654-64-64-64s-64 28.654-64 64c0 35.346 28.654 64 64 64s64-28.654 64-64z" />
<glyph unicode="&#xe99b;" glyph-name="help-square" d="M960 960h-896c-38.4 0-64-25.6-64-64v-896c0-38.4 25.6-64 64-64h896c38.4 0 64 25.6 64 64v896c0 38.4-25.6 64-64 64zM896 64h-768v768h768v-768zM576 192c0-35.346-28.654-64-64-64s-64 28.654-64 64c0 35.346 28.654 64 64 64s64-28.654 64-64zM454.4 608c12.8 19.2 32 32 57.6 32 38.4 0 64-25.6 64-64 0-19.2-6.4-25.6-38.4-44.8-38.4-25.6-89.6-64-89.6-147.2v-64h128v64c0 12.8 0 19.2 32 38.4 38.4 25.6 96 64 96 153.6 0 108.8-83.2 192-192 192-70.4 0-134.4-38.4-166.4-96l-32-57.6 108.8-64 32 57.6z" />
<glyph unicode="&#xe99c;" glyph-name="info-square" d="M960 960h-896c-38.4 0-64-25.6-64-64v-896c0-38.4 25.6-64 64-64h896c38.4 0 64 25.6 64 64v896c0 38.4-25.6 64-64 64zM896 64h-768v768h768v-768zM448 512h128v-320h-128v320zM576 640c0-35.346-28.654-64-64-64s-64 28.654-64 64c0 35.346 28.654 64 64 64s64-28.654 64-64z" />
<glyph unicode="&#xe99d;" glyph-name="users-add" d="M448 384v0c-140.8 0-256 115.2-256 256v64c0 140.8 115.2 256 256 256v0c140.8 0 256-115.2 256-256v-64c0-140.8-115.2-256-256-256zM320 256c-179.2 0-320-140.8-320-320h512v320h-192zM896 320h-128v-128h-128v-128h128v-128h128v128h128v128h-128z" />
<glyph unicode="&#xe99e;" glyph-name="users-badge" d="M960 640h-256v128c0 108.8-83.2 192-192 192s-192-83.2-192-192v-128h-256c-38.4 0-64-25.6-64-64v-576c0-38.4 25.6-64 64-64h896c38.4 0 64 25.6 64 64v576c0 38.4-25.6 64-64 64zM448 768c0 38.4 25.6 64 64 64s64-25.6 64-64v-128h-128v128zM896 64h-768v448h768v-448zM256 384h192v-192h-192v192zM512 384h256v-64h-256v64zM512 256h256v-64h-256v64z" />
<glyph unicode="&#xe99f;" glyph-name="users-circle" d="M704 512c0-106.039-85.961-192-192-192s-192 85.961-192 192c0 106.039 85.961 192 192 192s192-85.961 192-192zM512 960c-281.6 0-512-230.4-512-512s230.4-512 512-512 512 230.4 512 512-230.4 512-512 512zM768 166.4c-38.4 44.8-89.6 89.6-192 89.6h-128c-102.4 0-153.6-44.8-192-89.6-76.8 70.4-128 166.4-128 281.6 0 211.2 172.8 384 384 384s384-172.8 384-384c0-115.2-51.2-211.2-128-281.6z" />
<glyph unicode="&#xe9a0;" glyph-name="users-delete" d="M448 384v0c-140.8 0-256 115.2-256 256v64c0 140.8 115.2 256 256 256v0c140.8 0 256-115.2 256-256v-64c0-140.8-115.2-256-256-256zM320 256c-179.2 0-320-140.8-320-320h512v320h-192zM640 192v-128h384v128z" />
<glyph unicode="&#xe9a1;" glyph-name="team" d="M512 576v0c-108.8 0-192 83.2-192 192v0c0 108.8 83.2 192 192 192v0c108.8 0 192-83.2 192-192v0c0-108.8-83.2-192-192-192zM640-64h-256v256l-128 128v192h512v-192l-128-128zM128 640v0c-70.4 0-128 57.6-128 128v0c0 70.4 57.6 128 128 128v0c70.4 0 128-57.6 128-128v0c0-70.4-57.6-128-128-128zM192 294.4v281.6h-192v-192l64-64v-256h192v166.4zM896 640v0c70.4 0 128 57.6 128 128v0c0 70.4-57.6 128-128 128v0c-70.4 0-128-57.6-128-128v0c0-70.4 57.6-128 128-128zM832 294.4v281.6h192v-192l-64-64v-256h-192v166.4z" />
<glyph unicode="&#xe9a2;" glyph-name="user" d="M512 384v0c-140.8 0-256 115.2-256 256v64c0 140.8 115.2 256 256 256v0c140.8 0 256-115.2 256-256v-64c0-140.8-115.2-256-256-256zM640 256h-256c-179.2 0-320-140.8-320-320v0h896c0 179.2-140.8 320-320 320z" />
<glyph unicode="&#xe9a3;" glyph-name="cloud-fog" d="M768 192h-192v128h192c70.4 0 128 57.6 128 128 0 83.2-57.6 166.4-249.6 89.6-6.4 64-25.6 294.4-262.4 294.4-121.6 0-224-83.2-249.6-204.8l-128 25.6c38.4 179.2 198.4 307.2 377.6 307.2 166.4 0 307.2-102.4 358.4-256 153.6 12.8 281.6-108.8 281.6-256 0-140.8-115.2-256-256-256zM0 320h448v-128h-448v128zM128 512h448v-128h-448v128zM128 128h448v-128h-448v128z" />
<glyph unicode="&#xe9a4;" glyph-name="cloud-hail" d="M32 422.4c-19.2 51.2-32 102.4-32 153.6 0 211.2 172.8 384 384 384 166.4 0 307.2-102.4 358.4-256 153.6 12.8 281.6-108.8 281.6-256 0-38.4-25.6-64-64-64s-64 25.6-64 64c0 83.2-83.2 153.6-172.8 121.6-38.4-19.2-83.2 6.4-89.6 44.8-19.2 128-121.6 217.6-249.6 217.6-140.8 0-256-115.2-256-256 0-38.4 6.4-70.4 19.2-102.4s0-70.4-32-83.2c-32-12.8-70.4 0-83.2 32zM448 64h128v-128h-128v128zM256 192h128v-128h-128v128zM640 192h128v-128h-128v128zM448 320h128v-192h-128v192zM256 448h128v-192h-128v192zM640 448h128v-192h-128v192z" />
<glyph unicode="&#xe9a5;" glyph-name="cloud-light" d="M473.6-51.2c-32 19.2-38.4 57.6-19.2 89.6l64 89.6h-256l192 294.4c25.6 25.6 64 32 96 12.8 25.6-19.2 32-57.6 12.8-89.6l-64-89.6h256l-192-294.4c-19.2-25.6-57.6-32-89.6-12.8zM940.8 256l-83.2 96c25.6 25.6 38.4 57.6 38.4 96 0 89.6-64 160-249.6 89.6-6.4 64-25.6 294.4-262.4 294.4-140.8 0-256-115.2-256-256 0-83.2 38.4-153.6 102.4-204.8l-76.8-102.4c-96 70.4-153.6 185.6-153.6 307.2 0 211.2 172.8 384 384 384 166.4 0 307.2-102.4 358.4-256 153.6 12.8 281.6-108.8 281.6-256 0-70.4-32-140.8-83.2-192z" />
</font>
</defs>
</svg>
