<svg xmlns="http://www.w3.org/2000/svg" xmlns:xlink="http://www.w3.org/1999/xlink" x="0px" y="0px" width="48px" height="48px" viewBox="0 0 48 48"><g  transform="translate(0, 0)">
<line data-cap="butt" fill="none" stroke="#000000" stroke-width="2" stroke-miterlimit="10" x1="24" y1="18" x2="24" y2="44" stroke-linejoin="round" stroke-linecap="round"/>
<polyline fill="none" stroke="#000000" stroke-width="2" stroke-linecap="round" stroke-miterlimit="10" points="30,38 24,44 
	18,38 " stroke-linejoin="round"/>
<path data-color="color-2" fill="none" stroke="#000000" stroke-width="2" stroke-linecap="round" stroke-miterlimit="10" d="M32,32h6
	c4.4,0,8-3.6,8-8c0-4.4-3.6-8-8-8c0,0,0,0-0.1,0C37.4,8.2,30.9,2,23,2C15,2,8.4,8.3,8,16.3c-3.5,0.9-6,4-6,7.7c0,4.4,3.6,8,8,8h6" stroke-linejoin="round"/>
</g></svg>