<svg xmlns="http://www.w3.org/2000/svg" xmlns:xlink="http://www.w3.org/1999/xlink" x="0px" y="0px" width="48px" height="48px" viewBox="0 0 48 48"><g  transform="translate(0, 0)">
<line data-cap="butt" fill="none" stroke="#000000" stroke-width="2" stroke-miterlimit="10" x1="24" y1="44" x2="24" y2="18" stroke-linejoin="round" stroke-linecap="round"/>
<polyline fill="none" stroke="#000000" stroke-width="2" stroke-linecap="round" stroke-miterlimit="10" points="18,24 24,18 
	30,24 " stroke-linejoin="round"/>
<path data-color="color-2" fill="none" stroke="#000000" stroke-width="2" stroke-linecap="round" stroke-miterlimit="10" d="M32,34h6
	c4.4,0,8-3.6,8-8c0-4.4-3.6-8-8-8c0,0,0,0-0.1,0c-0.5-7.8-7-14-14.9-14C15,4,8.4,10.3,8,18.3c-3.5,0.9-6,4-6,7.7c0,4.4,3.6,8,8,8h6" stroke-linejoin="round"/>
</g></svg>