<svg xmlns="http://www.w3.org/2000/svg" xmlns:xlink="http://www.w3.org/1999/xlink" x="0px" y="0px" width="48px" height="48px" viewBox="0 0 48 48"><g  transform="translate(0, 0)">
<line data-color="color-2" fill="none" stroke="#000000" stroke-width="2" stroke-linecap="round" stroke-miterlimit="10" x1="6" y1="44" x2="42" y2="44" stroke-linejoin="round"/>
<path fill="none" stroke="#000000" stroke-width="2" stroke-linecap="round" stroke-miterlimit="10" d="M26,24l-8-8L30,4
	c2.2-2.2,5.8-2.2,8,0l0,0c2.2,2.2,2.2,5.8,0,8L26,24z" stroke-linejoin="round"/>
<path fill="none" stroke="#000000" stroke-width="2" stroke-linecap="round" stroke-miterlimit="10" d="M20,18L8,30
	c-1.1,1.1-1.1,2.9,0,4c1.1,1.1,2.9,1.1,4,0l12-12" stroke-linejoin="round"/>
<line fill="none" stroke="#000000" stroke-width="2" stroke-linecap="round" stroke-miterlimit="10" x1="8" y1="34" x2="6" y2="36" stroke-linejoin="round"/>
<polyline fill="none" stroke="#000000" stroke-width="2" stroke-linecap="round" stroke-miterlimit="10" points="38,12 41,15 
	33,23 " stroke-linejoin="round"/>
</g></svg>