<svg xmlns="http://www.w3.org/2000/svg" xmlns:xlink="http://www.w3.org/1999/xlink" x="0px" y="0px" width="48px" height="48px" viewBox="0 0 48 48"><g >
<rect x="18" y="24" fill="#EAC3A2" width="12" height="15"/>
<path fill="#F1D9C5" d="M35,12v8c0,6.065-4.935,11-11,11s-11-4.935-11-11v-8H35z"/>
<path fill="#FFFFFF" d="M31,41l-1-7c-1.688,1.25-3.754,2-6,2s-4.312-0.75-5.982-2L17,41
	l2,7h10L31,41z"/>
<path fill="#87613E" d="M13,11.999c0-3.313,2.535-6.904,5.654-8.018l7.406-2.645
	c0.519-0.185,1.139,0.062,1.384,0.552L29,5c3.314,0,6,2.693,6,6v6c0-2.761-2.239-5-5-5H18c-2.761,0-5,2.239-5,5V11.999z"/>
<polygon fill="#EA9860" points="21,48 23,42 25,42 27,48 "/>
<path fill="#EA9860" d="M23,42h2l2.185-2.185c0.43-0.43,0.38-1.142-0.107-1.507L24.6,36.45
	c-0.356-0.267-0.844-0.267-1.2,0l-2.478,1.858c-0.487,0.365-0.537,1.077-0.107,1.507L23,42z"/>
<path fill="#444444" d="M20,48l-1.982-14L4.754,39.797C3.233,40.461,2,42.35,2,44.009
	v2.988C2,47.551,2.451,48,2.995,48H20z"/>
<path fill="#444444" d="M28,48l1.982-14l13.264,5.797C44.767,40.461,46,42.35,46,44.009
	v2.988C46,47.551,45.549,48,45.005,48H28z"/>
</g></svg>