<svg xmlns="http://www.w3.org/2000/svg" xmlns:xlink="http://www.w3.org/1999/xlink" x="0px" y="0px" width="48px" height="48px" viewBox="0 0 48 48"><g  transform="translate(0, 0)">
<path fill="none" stroke="#000000" stroke-width="2" stroke-linecap="round" stroke-miterlimit="10" d="M43,40H5
	c-1.657,0-3-1.343-3-3V11c0-1.657,1.343-3,3-3h27h11c1.657,0,3,1.343,3,3v26C46,38.657,44.657,40,43,40z" stroke-linejoin="round"/>
<path data-color="color-2" data-stroke="none" fill="#000000" d="M29,16c-1.893,0-3.629,0.661-4.999,1.76C22.631,16.659,20.894,16,19,16
	c-4.418,0-8,3.582-8,8s3.582,8,8,8c1.893,0,3.626-0.664,4.994-1.765C25.365,31.337,27.104,32,29,32c4.418,0,8-3.582,8-8
	S33.418,16,29,16z M29,30c-1.353,0-2.599-0.456-3.604-1.214c0.188-0.252,0.367-0.512,0.525-0.786h-1.38
	c-0.276-0.307-0.52-0.641-0.729-1h2.601c0.131-0.323,0.237-0.658,0.325-1H23.35c-0.114-0.322-0.202-0.656-0.26-1h3.841
	C26.972,24.672,27,24.339,27,24h-4c0-0.341,0.035-0.674,0.09-1h3.841c-0.043-0.341-0.109-0.674-0.193-1H23.35
	c0.124-0.349,0.278-0.684,0.462-1h2.601c-0.14-0.347-0.306-0.679-0.492-1h-1.38c1.099-1.224,2.688-2,4.459-2c3.308,0,6,2.692,6,6
	S32.308,30,29,30z" stroke-linejoin="round" stroke-linecap="round"/>
</g></svg>