<svg xmlns="http://www.w3.org/2000/svg" xmlns:xlink="http://www.w3.org/1999/xlink" x="0px" y="0px" width="48px" height="48px" viewBox="0 0 48 48"><g  transform="translate(0, 0)">
<path fill="none" stroke="#000000" stroke-width="2" stroke-linecap="round" stroke-miterlimit="10" d="M43,40H5
	c-1.657,0-3-1.343-3-3V11c0-1.657,1.343-3,3-3h27h11c1.657,0,3,1.343,3,3v26C46,38.657,44.657,40,43,40z" stroke-linejoin="round"/>
<path data-color="color-2" data-stroke="none" fill-rule="evenodd" clip-rule="evenodd" fill="#000000" d="M28.334,27.484
	c-2.092,1.544-5.124,2.365-7.735,2.365c-3.66,0-6.955-1.353-9.449-3.605c-0.196-0.177-0.021-0.418,0.214-0.281
	c2.691,1.566,6.018,2.509,9.455,2.509c2.318,0,4.867-0.481,7.212-1.476C28.384,26.846,28.68,27.229,28.334,27.484z" stroke-linejoin="round" stroke-linecap="round"/>
<path data-color="color-2" data-stroke="none" fill-rule="evenodd" clip-rule="evenodd" fill="#000000" d="M29.204,26.491
	c-0.268-0.343-1.769-0.162-2.443-0.082c-0.204,0.024-0.236-0.154-0.052-0.283c1.197-0.841,3.159-0.598,3.387-0.317
	c0.23,0.284-0.06,2.251-1.182,3.19c-0.173,0.144-0.337,0.067-0.26-0.123C28.907,28.245,29.472,26.833,29.204,26.491z" stroke-linejoin="round" stroke-linecap="round"/>
<path data-color="color-2" data-stroke="none" fill-rule="evenodd" clip-rule="evenodd" fill="#000000" d="M26.809,20.185v-0.817
	c0-0.124,0.094-0.207,0.207-0.207l3.662,0c0.117,0,0.211,0.085,0.211,0.206l0,0.701c-0.001,0.118-0.1,0.271-0.276,0.514
	l-1.897,2.709c0.704-0.017,1.449,0.089,2.089,0.449C30.95,23.82,30.989,23.94,31,24.058v0.872c0,0.12-0.131,0.259-0.27,0.187
	c-1.127-0.59-2.623-0.655-3.87,0.007c-0.127,0.068-0.261-0.069-0.261-0.189v-0.829c0-0.133,0.002-0.359,0.136-0.562l2.198-3.153
	l-1.914,0C26.904,20.391,26.81,20.307,26.809,20.185z" stroke-linejoin="round" stroke-linecap="round"/>
<path data-color="color-2" data-stroke="none" fill-rule="evenodd" clip-rule="evenodd" fill="#000000" d="M13.45,25.289h-1.114
	c-0.106-0.007-0.191-0.087-0.199-0.188l0.001-5.719c0-0.114,0.096-0.206,0.215-0.206l1.038,0c0.109,0.006,0.196,0.088,0.203,0.192
	v0.747h0.021c0.27-0.722,0.78-1.059,1.466-1.059c0.697,0,1.134,0.337,1.446,1.059c0.27-0.722,0.884-1.059,1.539-1.059
	c0.468,0,0.978,0.193,1.29,0.626c0.354,0.481,0.281,1.179,0.281,1.793l-0.001,3.609c0,0.114-0.096,0.206-0.215,0.206h-1.113
	c-0.112-0.007-0.2-0.096-0.2-0.205l0-3.032c0-0.241,0.021-0.842-0.031-1.071c-0.083-0.385-0.333-0.493-0.655-0.493
	c-0.27,0-0.551,0.181-0.666,0.469c-0.114,0.289-0.104,0.77-0.104,1.095v3.031c0,0.114-0.096,0.206-0.215,0.206h-1.113
	c-0.112-0.007-0.2-0.096-0.2-0.205l-0.001-3.032c0-0.638,0.104-1.576-0.686-1.576c-0.801,0-0.77,0.915-0.77,1.576l0,3.031
	C13.665,25.197,13.568,25.289,13.45,25.289z" stroke-linejoin="round" stroke-linecap="round"/>
<path data-color="color-2" data-stroke="none" fill-rule="evenodd" clip-rule="evenodd" fill="#000000" d="M34.043,19.055
	c1.654,0,2.548,1.42,2.548,3.225c0,1.745-0.988,3.129-2.548,3.129c-1.623,0-2.507-1.42-2.507-3.189
	C31.536,20.439,32.431,19.055,34.043,19.055z M34.053,20.223c-0.822,0-0.874,1.119-0.874,1.817c0,0.698-0.01,2.19,0.863,2.19
	c0.863,0,0.905-1.203,0.905-1.937c0-0.481-0.021-1.059-0.166-1.516C34.656,20.379,34.407,20.223,34.053,20.223z" stroke-linejoin="round" stroke-linecap="round"/>
<path data-color="color-2" data-stroke="none" fill-rule="evenodd" clip-rule="evenodd" fill="#000000" d="M38.735,25.289h-1.11
	c-0.112-0.007-0.2-0.096-0.2-0.205l-0.002-5.721c0.009-0.105,0.102-0.187,0.214-0.187l1.034,0c0.097,0.005,0.177,0.071,0.198,0.16
	v0.875h0.021c0.312-0.782,0.749-1.155,1.518-1.155c0.499,0,0.988,0.181,1.3,0.674C42,20.186,42,20.957,42,21.51v3.598
	c-0.013,0.101-0.103,0.18-0.214,0.18h-1.117c-0.103-0.007-0.186-0.082-0.198-0.18v-3.105c0-0.626,0.073-1.54-0.697-1.54
	c-0.271,0-0.52,0.181-0.645,0.457c-0.156,0.349-0.177,0.698-0.177,1.083v3.079C38.95,25.197,38.854,25.289,38.735,25.289z" stroke-linejoin="round" stroke-linecap="round"/>
<path data-color="color-2" data-stroke="none" fill-rule="evenodd" clip-rule="evenodd" fill="#000000" d="M23.89,22.558
	c0,0.434,0.01,0.796-0.208,1.182c-0.177,0.314-0.459,0.507-0.771,0.507c-0.427,0-0.677-0.326-0.677-0.808
	c0-0.949,0.851-1.122,1.657-1.122V22.558z M25.013,25.274c-0.074,0.066-0.18,0.071-0.263,0.026c-0.37-0.308-0.436-0.45-0.639-0.743
	c-0.612,0.623-1.045,0.81-1.837,0.81c-0.938,0-1.668-0.579-1.668-1.737c0-0.905,0.49-1.52,1.188-1.821
	c0.605-0.265,1.449-0.314,2.095-0.386v-0.145c0-0.265,0.021-0.579-0.136-0.808c-0.136-0.205-0.396-0.289-0.625-0.289
	c-0.425,0-0.803,0.218-0.896,0.669c-0.019,0.1-0.093,0.2-0.194,0.205l-1.08-0.117c-0.091-0.021-0.193-0.094-0.166-0.233
	C21.042,19.396,22.225,19,23.285,19c0.542,0,1.251,0.145,1.678,0.555c0.542,0.507,0.49,1.182,0.49,1.918v1.736
	c0,0.522,0.217,0.751,0.421,1.033c0.071,0.101,0.087,0.222-0.004,0.296c-0.228,0.191-0.632,0.542-0.854,0.74L25.013,25.274z" stroke-linejoin="round" stroke-linecap="round"/>
<path data-color="color-2" data-stroke="none" fill-rule="evenodd" clip-rule="evenodd" fill="#000000" d="M9.283,22.558
	c0,0.434,0.01,0.796-0.208,1.182c-0.177,0.314-0.459,0.507-0.771,0.507c-0.427,0-0.677-0.326-0.677-0.808
	c0-0.949,0.851-1.122,1.657-1.122V22.558z M10.407,25.274c-0.074,0.066-0.18,0.071-0.263,0.026c-0.37-0.308-0.436-0.45-0.639-0.743
	c-0.612,0.623-1.045,0.81-1.837,0.81C6.73,25.368,6,24.789,6,23.631c0-0.905,0.49-1.52,1.188-1.821
	c0.605-0.265,1.449-0.314,2.095-0.386v-0.145c0-0.265,0.021-0.579-0.135-0.808c-0.136-0.205-0.396-0.289-0.625-0.289
	c-0.425,0-0.803,0.218-0.896,0.669c-0.019,0.1-0.093,0.2-0.194,0.205l-1.08-0.117c-0.091-0.021-0.193-0.094-0.166-0.233
	C6.435,19.396,7.618,19,8.679,19c0.542,0,1.251,0.145,1.678,0.555c0.542,0.507,0.49,1.182,0.49,1.918v1.736
	c0,0.522,0.217,0.751,0.42,1.033c0.071,0.101,0.087,0.222-0.004,0.296c-0.228,0.191-0.632,0.542-0.854,0.74L10.407,25.274z" stroke-linejoin="round" stroke-linecap="round"/>
</g></svg>