<svg xmlns="http://www.w3.org/2000/svg" xmlns:xlink="http://www.w3.org/1999/xlink" x="0px" y="0px" width="48px" height="48px" viewBox="0 0 48 48"><g  transform="translate(0, 0)">
<line data-color="color-2" fill="none" stroke="#000000" stroke-width="2" stroke-linecap="round" stroke-miterlimit="10" x1="28" y1="24" x2="34" y2="24" stroke-linejoin="round"/>
<line data-color="color-2" fill="none" stroke="#000000" stroke-width="2" stroke-linecap="round" stroke-miterlimit="10" x1="20" y1="24" x2="14" y2="24" stroke-linejoin="round"/>
<path data-cap="butt" fill="none" stroke="#000000" stroke-width="2" stroke-miterlimit="10" d="M27.6,18.2l12.5-6.9
	c2.7-1.5,5.9,0.4,5.9,3.5v18.4c0,3-3.3,5-5.9,3.5l-12.5-6.9" stroke-linejoin="round" stroke-linecap="round"/>
<path data-cap="butt" fill="none" stroke="#000000" stroke-width="2" stroke-miterlimit="10" d="M20.4,18.2L7.9,11.3
	C5.3,9.8,2,11.7,2,14.8v18.4c0,3,3.3,5,5.9,3.5l12.5-6.9" stroke-linejoin="round" stroke-linecap="round"/>
<path fill="none" stroke="#000000" stroke-width="2" stroke-linecap="round" stroke-miterlimit="10" d="M24,32L24,32
	c-2.2,0-4-1.8-4-4v-8c0-2.2,1.8-4,4-4h0c2.2,0,4,1.8,4,4v8C28,30.2,26.2,32,24,32z" stroke-linejoin="round"/>
</g></svg>