<svg xmlns="http://www.w3.org/2000/svg" xmlns:xlink="http://www.w3.org/1999/xlink" x="0px" y="0px" width="48px" height="48px" viewBox="0 0 48 48"><g  transform="translate(0, 0)">
<path fill="none" stroke="#000000" stroke-width="2" stroke-linecap="round" stroke-miterlimit="10" d="M28,46h-8
	c-5.5,0-10-4.5-10-10V12c0-5.5,4.5-10,10-10h8c5.5,0,10,4.5,10,10v24C38,41.5,33.5,46,28,46z" stroke-linejoin="round"/>
<path data-color="color-2" fill="none" stroke="#000000" stroke-width="2" stroke-linecap="round" stroke-miterlimit="10" d="M25,22h-2
	c-0.6,0-1-0.4-1-1v-8c0-0.6,0.4-1,1-1h2c0.6,0,1,0.4,1,1v8C26,21.6,25.6,22,25,22z" stroke-linejoin="round"/>
</g></svg>