<svg xmlns="http://www.w3.org/2000/svg" xmlns:xlink="http://www.w3.org/1999/xlink" x="0px" y="0px" width="48px" height="48px" viewBox="0 0 48 48"><g  transform="translate(0, 0)">
<line data-cap="butt" fill="none" stroke="#000000" stroke-width="2" stroke-miterlimit="10" x1="23" y1="19" x2="29" y2="25" stroke-linejoin="round" stroke-linecap="round"/>
<rect x="14.8" y="10.6" transform="matrix(0.7071 0.7071 -0.7071 0.7071 26.0711 -4.9411)" fill="none" stroke="#000000" stroke-width="2" stroke-linecap="round" stroke-miterlimit="10" width="8.5" height="36.8" stroke-linejoin="round"/>
<path data-color="color-2" fill="none" stroke="#000000" stroke-width="2" stroke-linecap="round" stroke-miterlimit="10" d="M21,12
	c-2.4-2.4-7.6-2.4-10,0c2.4-2.4,2.4-7.6,0-10c2.4,2.4,7.6,2.4,10,0C18.6,4.4,18.6,9.6,21,12z" stroke-linejoin="round"/>
<path data-color="color-2" fill="none" stroke="#000000" stroke-width="2" stroke-linecap="round" stroke-miterlimit="10" d="M46,12
	c-2.4-2.4-7.6-2.4-10,0c2.4-2.4,2.4-7.6,0-10c2.4,2.4,7.6,2.4,10,0C43.6,4.4,43.6,9.6,46,12z" stroke-linejoin="round"/>
<path data-color="color-2" fill="none" stroke="#000000" stroke-width="2" stroke-linecap="round" stroke-miterlimit="10" d="M46,37
	c-2.4-2.4-7.6-2.4-10,0c2.4-2.4,2.4-7.6,0-10c2.4,2.4,7.6,2.4,10,0C43.6,29.4,43.6,34.6,46,37z" stroke-linejoin="round"/>
</g></svg>