<svg xmlns="http://www.w3.org/2000/svg" xmlns:xlink="http://www.w3.org/1999/xlink" x="0px" y="0px" width="48px" height="48px" viewBox="0 0 48 48"><g  transform="translate(0, 0)">
<path fill="none" stroke="#000000" stroke-width="2" stroke-linecap="round" stroke-miterlimit="10" d="M2,24c0-7.4,3.7-14,9.3-18
	c2.1-1.4,5.3-1.7,6.7,0c1.9,2.5-1.5,6,0,8c3.9,4.8,12.2-4.7,22,0c7,3.5,6,12.7,5.2,16C42.6,39.2,34.1,46,24,46C11.8,46,2,36.2,2,24z
	" stroke-linejoin="round"/>
<circle data-color="color-2" fill="none" stroke="#000000" stroke-width="2" stroke-linecap="round" stroke-miterlimit="10" cx="34" cy="24" r="4" stroke-linejoin="round"/>
<circle data-color="color-2" fill="none" stroke="#000000" stroke-width="2" stroke-linecap="round" stroke-miterlimit="10" cx="10" cy="24" r="2" stroke-linejoin="round"/>
<circle data-color="color-2" fill="none" stroke="#000000" stroke-width="2" stroke-linecap="round" stroke-miterlimit="10" cx="15" cy="34" r="2" stroke-linejoin="round"/>
<circle data-color="color-2" fill="none" stroke="#000000" stroke-width="2" stroke-linecap="round" stroke-miterlimit="10" cx="26" cy="38" r="2" stroke-linejoin="round"/>
</g></svg>