<svg xmlns="http://www.w3.org/2000/svg" xmlns:xlink="http://www.w3.org/1999/xlink" x="0px" y="0px" width="48px" height="48px" viewBox="0 0 48 48"><g  transform="translate(0, 0)">
<path data-cap="butt" fill="none" stroke="#000000" stroke-width="2" stroke-miterlimit="10" d="M36,16v26c0,2.2-1.8,4-4,4H12
	c-2.2,0-4-1.8-4-4V6c0-2.2,1.8-4,4-4h20c2.2,0,4,1.8,4,4v2" stroke-linejoin="round" stroke-linecap="round"/>
<circle fill="none" stroke="#000000" stroke-width="2" stroke-linecap="round" stroke-miterlimit="10" cx="22" cy="38" r="2" stroke-linejoin="round"/>
<line data-cap="butt" fill="none" stroke="#000000" stroke-width="2" stroke-miterlimit="10" x1="8" y1="10" x2="34" y2="10" stroke-linejoin="round" stroke-linecap="round"/>
<line data-cap="butt" fill="none" stroke="#000000" stroke-width="2" stroke-miterlimit="10" x1="30" y1="30" x2="36" y2="30" stroke-linejoin="round" stroke-linecap="round"/>
<line data-cap="butt" fill="none" stroke="#000000" stroke-width="2" stroke-miterlimit="10" x1="8" y1="30" x2="18" y2="30" stroke-linejoin="round" stroke-linecap="round"/>
<path data-color="color-2" fill="none" stroke="#000000" stroke-width="2" stroke-linecap="round" stroke-miterlimit="10" d="M30,22l-4-4
	L40,4c1.1-1.1,2.9-1.1,4,0l0,0c1.1,1.1,1.1,2.9,0,4L30,22z" stroke-linejoin="round"/>
<path data-color="color-2" fill="none" stroke="#000000" stroke-width="2" stroke-linecap="round" stroke-miterlimit="10" d="M19.4,22.9
	c1.6-1.6,4.1-1.6,5.7,0s1.6,4.1,0,5.7C23.5,30.1,18,30,18,30S17.9,24.5,19.4,22.9z" stroke-linejoin="round"/>
</g></svg>