<svg xmlns="http://www.w3.org/2000/svg" xmlns:xlink="http://www.w3.org/1999/xlink" x="0px" y="0px" width="48px" height="48px" viewBox="0 0 48 48"><g  transform="translate(0, 0)">
<path fill="none" stroke="#000000" stroke-width="2" stroke-linecap="round" stroke-miterlimit="10" d="M30,20h-7c-2.8,0-5-2.2-5-5
	v0c0-2.8,2.2-5,5-5h7V20z" stroke-linejoin="round"/>
<path fill="none" stroke="#000000" stroke-width="2" stroke-linecap="round" stroke-miterlimit="10" d="M22,4h4c2.2,0,4,1.8,4,4v12
	" stroke-linejoin="round"/>
<line fill="none" stroke="#000000" stroke-width="2" stroke-linecap="round" stroke-miterlimit="10" x1="6" y1="22" x2="6" y2="44" stroke-linejoin="round"/>
<path fill="none" stroke="#000000" stroke-width="2" stroke-linecap="round" stroke-miterlimit="10" d="M12,44H6V32h6
	c3.3,0,6,2.7,6,6v0C18,41.3,15.3,44,12,44z" stroke-linejoin="round"/>
<path fill="none" stroke="#000000" stroke-width="2" stroke-linecap="round" stroke-miterlimit="10" d="M43.5,32
	c-0.7-1.2-2-2-3.5-2h-4c-2.2,0-4,1.8-4,4v6c0,2.2,1.8,4,4,4h4c1.5,0,2.8-0.8,3.5-2" stroke-linejoin="round"/>
</g></svg>