<svg xmlns="http://www.w3.org/2000/svg" xmlns:xlink="http://www.w3.org/1999/xlink" x="0px" y="0px" width="48px" height="48px" viewBox="0 0 48 48"><g  transform="translate(0, 0)"><path data-color="color-2" data-stroke="none" fill="#000000" d="M19.426,36h-2.455l-1.531-2.455L13.926,36h-2.401l2.605-4.018l-2.449-3.835h2.353
	l1.418,2.428l1.364-2.428h2.422l-2.487,4.001L19.426,36z" stroke-linejoin="round" stroke-linecap="round"/>
<path data-color="color-2" data-stroke="none" fill="#000000" d="M23.729,36l-1.606-5.656h-0.048c0.075,0.964,0.113,1.712,0.113,2.246V36h-1.88
	v-7.853h2.825l1.638,5.575h0.043l1.606-5.575h2.831V36H27.3v-3.443c0-0.179,0.003-0.377,0.008-0.596
	c0.006-0.219,0.03-0.754,0.073-1.605h-0.048L25.748,36H23.729z" stroke-linejoin="round" stroke-linecap="round"/>
<path data-color="color-2" data-stroke="none" fill="#000000" d="M30.942,36v-7.853h2.122v6.14h3.024V36H30.942z" stroke-linejoin="round" stroke-linecap="round"/>
<polyline data-cap="butt" fill="none" stroke="#000000" stroke-width="2" stroke-miterlimit="10" points="29,2 29,14 41,14 " stroke-linejoin="round" stroke-linecap="round"/>
<polyline fill="none" stroke="#000000" stroke-width="2" stroke-linecap="round" stroke-miterlimit="10" points="41,23 41,14 29,2 
	7,2 7,23 " stroke-linejoin="round"/>
<polyline fill="none" stroke="#000000" stroke-width="2" stroke-linecap="round" stroke-miterlimit="10" points="7,41 7,46 41,46 
	41,41 " stroke-linejoin="round"/>
<line data-cap="butt" fill="none" stroke="#000000" stroke-width="2" stroke-miterlimit="10" x1="46" y1="23" x2="2" y2="23" stroke-linejoin="round" stroke-linecap="round"/>
<polyline data-cap="butt" fill="none" stroke="#000000" stroke-width="2" stroke-miterlimit="10" points="7,18 2,23 2,41 46,41 46,23 
	41,18 " stroke-linejoin="round" stroke-linecap="round"/></g></svg>