<svg xmlns="http://www.w3.org/2000/svg" xmlns:xlink="http://www.w3.org/1999/xlink" x="0px" y="0px" width="48px" height="48px" viewBox="0 0 48 48"><g  transform="translate(0, 0)"><path data-color="color-2" data-stroke="none" fill="#000000" d="M18.414,30.645c0,0.878-0.259,1.556-0.775,2.033
	c-0.518,0.479-1.253,0.717-2.205,0.717h-0.597V36h-2.122v-7.853h2.719c0.991,0,1.736,0.217,2.234,0.649
	C18.165,29.23,18.414,29.847,18.414,30.645z M14.837,31.666h0.387c0.319,0,0.571-0.09,0.761-0.27
	c0.188-0.179,0.281-0.426,0.281-0.74c0-0.53-0.293-0.795-0.881-0.795h-0.548V31.666z" stroke-linejoin="round" stroke-linecap="round"/>
<path data-color="color-2" data-stroke="none" fill="#000000" d="M27.143,36h-2.783l-2.867-5.532h-0.049c0.068,0.87,0.102,1.534,0.102,1.993V36
	h-1.879v-7.853h2.771l2.857,5.457h0.031c-0.05-0.791-0.074-1.427-0.074-1.907v-3.55h1.891V36z" stroke-linejoin="round" stroke-linecap="round"/>
<path data-color="color-2" data-stroke="none" fill="#000000" d="M31.992,31.402h3.389v4.232c-0.92,0.315-1.932,0.473-3.034,0.473
	c-1.21,0-2.146-0.351-2.806-1.053c-0.662-0.702-0.992-1.703-0.992-3.002c0-1.268,0.362-2.255,1.086-2.96
	c0.723-0.705,1.736-1.058,3.039-1.058c0.494,0,0.961,0.046,1.4,0.139c0.438,0.094,0.82,0.212,1.146,0.355l-0.672,1.664
	c-0.566-0.279-1.188-0.418-1.863-0.418c-0.62,0-1.1,0.201-1.438,0.604c-0.338,0.403-0.508,0.979-0.508,1.727
	c0,0.734,0.154,1.294,0.459,1.679c0.307,0.385,0.748,0.577,1.324,0.577c0.315,0,0.605-0.03,0.871-0.091v-1.229h-1.402V31.402z" stroke-linejoin="round" stroke-linecap="round"/>
<polyline data-cap="butt" fill="none" stroke="#000000" stroke-width="2" stroke-miterlimit="10" points="29,2 29,14 41,14 " stroke-linejoin="round" stroke-linecap="round"/>
<polyline fill="none" stroke="#000000" stroke-width="2" stroke-linecap="round" stroke-miterlimit="10" points="41,23 41,14 29,2 
	7,2 7,23 " stroke-linejoin="round"/>
<polyline fill="none" stroke="#000000" stroke-width="2" stroke-linecap="round" stroke-miterlimit="10" points="7,41 7,46 41,46 
	41,41 " stroke-linejoin="round"/>
<line data-cap="butt" fill="none" stroke="#000000" stroke-width="2" stroke-miterlimit="10" x1="46" y1="23" x2="2" y2="23" stroke-linejoin="round" stroke-linecap="round"/>
<polyline data-cap="butt" fill="none" stroke="#000000" stroke-width="2" stroke-miterlimit="10" points="7,18 2,23 2,41 46,41 46,23 
	41,18 " stroke-linejoin="round" stroke-linecap="round"/></g></svg>