<svg xmlns="http://www.w3.org/2000/svg" xmlns:xlink="http://www.w3.org/1999/xlink" x="0px" y="0px" width="48px" height="48px" viewBox="0 0 48 48"><g  transform="translate(0, 0)">
<path data-cap="butt" data-color="color-2" fill="none" stroke="#000000" stroke-width="2" stroke-miterlimit="10" d="M33,30v13c0,1.7,1.3,3,3,3h0
	c1.7,0,3-1.3,3-3V30" stroke-linejoin="round" stroke-linecap="round"/>
<path data-color="color-2" fill="none" stroke="#000000" stroke-width="2" stroke-linecap="round" stroke-miterlimit="10" d="M39,30H29
	V12c0-5.5,4.5-10,10-10h0V30z" stroke-linejoin="round"/>
<path data-cap="butt" fill="none" stroke="#000000" stroke-width="2" stroke-miterlimit="10" d="M9,22v21c0,1.7,1.3,3,3,3h0
	c1.7,0,3-1.3,3-3V22" stroke-linejoin="round" stroke-linecap="round"/>
<path fill="none" stroke="#000000" stroke-width="2" stroke-linecap="round" stroke-miterlimit="10" d="M20,2v16c0,2.2-1.8,4-4,4H8
	c-2.2,0-4-1.8-4-4V2" stroke-linejoin="round"/>
<line fill="none" stroke="#000000" stroke-width="2" stroke-linecap="round" stroke-miterlimit="10" x1="12" y1="2" x2="12" y2="12" stroke-linejoin="round"/>
<line fill="none" stroke="#000000" stroke-width="2" stroke-linecap="round" stroke-miterlimit="10" x1="4" y1="12" x2="20" y2="12" stroke-linejoin="round"/>
</g></svg>