<svg xmlns="http://www.w3.org/2000/svg" xmlns:xlink="http://www.w3.org/1999/xlink" x="0px" y="0px" width="48px" height="48px" viewBox="0 0 48 48"><g  transform="translate(0, 0)">
<line fill="none" stroke="#000000" stroke-width="2" stroke-linecap="round" stroke-miterlimit="10" x1="17" y1="26" x2="17" y2="32" stroke-linejoin="round"/>
<path fill="none" stroke="#000000" stroke-width="2" stroke-linecap="round" stroke-miterlimit="10" d="M34.1135,24.2227L23,22v-9
	c0-1.65685-1.34314-3-3-3H20c-1.65685,0-3,1.34314-3,3v13h-4c-1.10457,0-2,0.89543-2,2v8c0,3.5,5,6.0625,5,10h18l3.25838-17.10653
	C37.66906,26.73741,36.2657,24.65314,34.1135,24.2227z" stroke-linejoin="round"/>
<line data-color="color-2" fill="none" stroke="#000000" stroke-width="2" stroke-linecap="round" stroke-miterlimit="10" x1="20" y1="2" x2="20" y2="5" stroke-linejoin="round"/>
<line data-color="color-2" fill="none" stroke="#000000" stroke-width="2" stroke-linecap="round" stroke-miterlimit="10" x1="27.77818" y1="5.22183" x2="25.65685" y2="7.34315" stroke-linejoin="round"/>
<line data-color="color-2" fill="none" stroke="#000000" stroke-width="2" stroke-linecap="round" stroke-miterlimit="10" x1="31" y1="13" x2="28" y2="13" stroke-linejoin="round"/>
<line data-color="color-2" fill="none" stroke="#000000" stroke-width="2" stroke-linecap="round" stroke-miterlimit="10" x1="12.22183" y1="5.22183" x2="14.34315" y2="7.34315" stroke-linejoin="round"/>
<line data-color="color-2" fill="none" stroke="#000000" stroke-width="2" stroke-linecap="round" stroke-miterlimit="10" x1="9" y1="13" x2="12" y2="13" stroke-linejoin="round"/>
</g></svg>