<svg xmlns="http://www.w3.org/2000/svg" xmlns:xlink="http://www.w3.org/1999/xlink" x="0px" y="0px" width="48px" height="48px" viewBox="0 0 48 48"><g  transform="translate(0, 0)">
<line data-cap="butt" data-color="color-2" fill="none" stroke="#000000" stroke-width="2" stroke-miterlimit="10" x1="42" y1="11" x2="26" y2="11" stroke-linejoin="round" stroke-linecap="round"/>
<polyline data-color="color-2" fill="none" stroke="#000000" stroke-width="2" stroke-linecap="round" stroke-miterlimit="10" points="
	37,6 42,11 37,16 " stroke-linejoin="round"/>
<line data-cap="butt" data-color="color-2" fill="none" stroke="#000000" stroke-width="2" stroke-miterlimit="10" x1="4" y1="11" x2="20" y2="11" stroke-linejoin="round" stroke-linecap="round"/>
<polyline data-color="color-2" fill="none" stroke="#000000" stroke-width="2" stroke-linecap="round" stroke-miterlimit="10" points="
	9,6 4,11 9,16 " stroke-linejoin="round"/>
<line fill="none" stroke="#000000" stroke-width="2" stroke-linecap="round" stroke-miterlimit="10" x1="20" y1="24" x2="20" y2="30" stroke-linejoin="round"/>
<path fill="none" stroke="#000000" stroke-width="2" stroke-linecap="round" stroke-miterlimit="10" d="M37.1135,22.2227L26,20V9
	c0-1.65685-1.34314-3-3-3H23c-1.65685,0-3,1.34314-3,3v15h-4c-1.10457,0-2,0.89543-2,2v8c0,3.5,5,6.0625,5,10h18l3.25838-17.10653
	C40.66906,24.73741,39.2657,22.65314,37.1135,22.2227z" stroke-linejoin="round"/>
</g></svg>