<svg xmlns="http://www.w3.org/2000/svg" xmlns:xlink="http://www.w3.org/1999/xlink" x="0px" y="0px" width="48px" height="48px" viewBox="0 0 48 48"><g  transform="translate(0, 0)">
<line data-cap="butt" data-color="color-2" fill="none" stroke="#000000" stroke-width="2" stroke-miterlimit="10" x1="8" y1="42" x2="8" y2="27" stroke-linejoin="round" stroke-linecap="round"/>
<polyline data-color="color-2" fill="none" stroke="#000000" stroke-width="2" stroke-linecap="round" stroke-miterlimit="10" points="
	13,37 8,42 3,37 " stroke-linejoin="round"/>
<line data-cap="butt" data-color="color-2" fill="none" stroke="#000000" stroke-width="2" stroke-miterlimit="10" x1="8" y1="6" x2="8" y2="21" stroke-linejoin="round" stroke-linecap="round"/>
<polyline data-color="color-2" fill="none" stroke="#000000" stroke-width="2" stroke-linecap="round" stroke-miterlimit="10" points="13,11 
	8,6 3,11 " stroke-linejoin="round"/>
<line fill="none" stroke="#000000" stroke-width="2" stroke-linecap="round" stroke-miterlimit="10" x1="25" y1="23" x2="25" y2="29" stroke-linejoin="round"/>
<path fill="none" stroke="#000000" stroke-width="2" stroke-linecap="round" stroke-miterlimit="10" d="M42.1135,21.2227L31,19V8
	c0-1.65685-1.34314-3-3-3H28c-1.65685,0-3,1.34314-3,3v15h-4c-1.10457,0-2,0.89543-2,2v8c0,3.5,5,6.0625,5,10h18l3.25838-17.10653
	C45.66906,23.73741,44.2657,21.65314,42.1135,21.2227z" stroke-linejoin="round"/>
</g></svg>