<svg xmlns="http://www.w3.org/2000/svg" xmlns:xlink="http://www.w3.org/1999/xlink" x="0px" y="0px" width="48px" height="48px" viewBox="0 0 48 48"><g  transform="translate(0, 0)">
<path fill="none" stroke="#000000" stroke-width="2" stroke-linecap="round" stroke-miterlimit="10" d="M41.7,26.5l-12-1
	c0.6-7.5-1.3-9.4-0.9-14.1c0.5-6.1,4.5-9.7,8.8-9.3l0,0c4.3,0.3,7.7,4.6,7.2,10.6S41.7,26.5,41.7,26.5z" stroke-linejoin="round"/>
<path data-color="color-2" fill="none" stroke="#000000" stroke-width="2" stroke-linecap="round" stroke-miterlimit="10" d="M34.4,41.9
	L34.4,41.9c-4.1-0.3-6.9-4.4-5.8-8.3l0.6-2.1l12,1l0.3,2.2C41.9,38.7,38.5,42.3,34.4,41.9z" stroke-linejoin="round"/>
<path fill="none" stroke="#000000" stroke-width="2" stroke-linecap="round" stroke-miterlimit="10" d="M6.4,30.6l11.9-1.2
	c-0.7-7.5,1.1-9.4,0.6-14.1c-0.6-6.1-4.6-9.6-8.9-9.2l0,0c-4.3,0.4-7.6,4.8-7,10.7S6.4,30.6,6.4,30.6z" stroke-linejoin="round"/>
<path data-color="color-2" fill="none" stroke="#000000" stroke-width="2" stroke-linecap="round" stroke-miterlimit="10" d="M13.9,45.9
	L13.9,45.9c4.1-0.4,6.8-4.5,5.6-8.4l-0.6-2.1L7,36.5l-0.2,2.2C6.4,42.8,9.8,46.3,13.9,45.9z" stroke-linejoin="round"/>
</g></svg>