<svg xmlns="http://www.w3.org/2000/svg" xmlns:xlink="http://www.w3.org/1999/xlink" x="0px" y="0px" width="48px" height="48px" viewBox="0 0 48 48"><g  transform="translate(0, 0)">
<path data-cap="butt" fill="none" stroke="#000000" stroke-width="2" stroke-miterlimit="10" d="M17.8,10c-3.3,0-6.1,1.1-8.6,3.1
	c-4.8,3.8-10.9,17.4,5.6,31.4c3.9,3.3,9.3,0,9.3,0s5.4,3.3,9.3,0c16.4-14.1,10.4-27.7,5.6-31.4c-3.9-3.1-8.6-4.2-14.7-1.9" stroke-linejoin="round" stroke-linecap="round"/>
<path data-cap="butt" data-color="color-2" fill="none" stroke="#000000" stroke-width="2" stroke-miterlimit="10" d="M30,16c-1.7,1.3-3.7,2-6,2
	c-2.3,0-4.3-0.7-6-2" stroke-linejoin="round" stroke-linecap="round"/>
<path data-cap="butt" data-color="color-2" fill="none" stroke="#000000" stroke-width="2" stroke-miterlimit="10" d="M24,18c0-9,1.1-12.8,6-16" stroke-linejoin="round" stroke-linecap="round"/>
<path data-cap="butt" data-color="color-2" fill="none" stroke="#000000" stroke-width="2" stroke-miterlimit="10" d="M24.2,12.3c0,0-0.3-4.1-3.1-7
	S14,2.2,14,2.2s0.3,4.3,3.1,7.1s7.1,3.1,7.1,3.1" stroke-linejoin="round" stroke-linecap="round"/>
</g></svg>