<svg xmlns="http://www.w3.org/2000/svg" xmlns:xlink="http://www.w3.org/1999/xlink" x="0px" y="0px" width="48px" height="48px" viewBox="0 0 48 48"><g  transform="translate(0, 0)">
<path fill="none" stroke="#000000" stroke-width="2" stroke-linecap="round" stroke-miterlimit="10" d="M24,8c0-3.3-2.7-6-6-6
	c-2.6,0-4.8,1.7-5.6,4c-0.1,0-0.2,0-0.4,0C6.5,6,2,10.5,2,16c0,2.7,1.1,5.1,2.8,6.9C3.1,24,2,25.9,2,28c0,2,1,3.8,2.5,4.9
	c-0.3,1-0.5,2-0.5,3.1c0,5.5,4.5,10,10,10s10-4.5,10-10V20" stroke-linejoin="round"/>
<path fill="none" stroke="#000000" stroke-width="2" stroke-linecap="round" stroke-miterlimit="10" d="M24,8c0-3.3,2.7-6,6-6
	c2.6,0,4.8,1.7,5.6,4c0.1,0,0.2,0,0.4,0c5.5,0,10,4.5,10,10c0,2.7-1.1,5.1-2.8,6.9C44.9,24,46,25.9,46,28c0,2-1,3.8-2.5,4.9
	c0.3,1,0.5,2,0.5,3.1c0,5.5-4.5,10-10,10s-10-4.5-10-10" stroke-linejoin="round"/>
<path fill="none" stroke="#000000" stroke-width="2" stroke-linecap="round" stroke-miterlimit="10" d="M12,26
	c-2.8,0-5.4-1.2-7.2-3.1" stroke-linejoin="round"/>
<path fill="none" stroke="#000000" stroke-width="2" stroke-linecap="round" stroke-miterlimit="10" d="M36,26
	c2.8,0,5.4-1.2,7.2-3.1" stroke-linejoin="round"/>
<path fill="none" stroke="#000000" stroke-width="2" stroke-linecap="round" stroke-miterlimit="10" d="M24,8c0,3.3-2.7,6-6,6" stroke-linejoin="round"/>
<path fill="none" stroke="#000000" stroke-width="2" stroke-linecap="round" stroke-miterlimit="10" d="M24,8c0,3.3,2.7,6,6,6" stroke-linejoin="round"/>
<path fill="none" stroke="#000000" stroke-width="2" stroke-linecap="round" stroke-miterlimit="10" d="M16,31.7
	c-2.3-0.8-4-3-4-5.7c0-1.8,0.8-3.4,2-4.5" stroke-linejoin="round"/>
<path fill="none" stroke="#000000" stroke-width="2" stroke-linecap="round" stroke-miterlimit="10" d="M32,31.7c2.3-0.8,4-3,4-5.7
	c0-1.8-0.8-3.4-2-4.5" stroke-linejoin="round"/>
</g></svg>