<svg xmlns="http://www.w3.org/2000/svg" xmlns:xlink="http://www.w3.org/1999/xlink" x="0px" y="0px" width="48px" height="48px" viewBox="0 0 48 48"><g  transform="translate(0, 0)">
<path data-cap="butt" fill="none" stroke="#000000" stroke-width="2" stroke-miterlimit="10" d="M24,46c-3.9-3.2-4.2-13.6,2-16
	c3.3-1.3,4.3,5.9,10.8,4.1c1.2-0.3,4.2,1.4,3.1,4.1" stroke-linejoin="round" stroke-linecap="round"/>
<path data-cap="butt" fill="none" stroke="#000000" stroke-width="2" stroke-miterlimit="10" d="M12.6,9.6c1.3,0.9,2.3,2.1,3.2,3.7
	c0.8,1.4,2.6,5.1,1,7.3C14.9,23,9.5,23.8,9.5,26c0,1.7,2.4,3.6,3.6,5.5c1.9,2.8,1,5.5,0,7.3c-0.5,0.9-1.3,1.6-2.3,2.2" stroke-linejoin="round" stroke-linecap="round"/>
<path data-cap="butt" fill="none" stroke="#000000" stroke-width="2" stroke-miterlimit="10" d="M40.5,14.7C42.7,17.9,44,21.8,44,26
	c0,11-9,20-20,20S4,37,4,26S13,6,24,6c1,0,2,0.1,2.9,0.2" stroke-linejoin="round" stroke-linecap="round"/>
<line data-color="color-2" fill="none" stroke="#000000" stroke-width="2" stroke-linecap="round" stroke-miterlimit="10" x1="34" y1="18" x2="34" y2="24" stroke-linejoin="round"/>
<circle data-color="color-2" fill="none" stroke="#000000" stroke-width="2" stroke-linecap="round" stroke-miterlimit="10" cx="34" cy="10" r="8" stroke-linejoin="round"/>
</g></svg>