<svg xmlns="http://www.w3.org/2000/svg" xmlns:xlink="http://www.w3.org/1999/xlink" x="0px" y="0px" width="48px" height="48px" viewBox="0 0 48 48"><g  transform="translate(0, 0)">
<path data-cap="butt" data-color="color-2" fill="none" stroke="#000000" stroke-width="2" stroke-miterlimit="10" d="M4,28.7V18C4,9.2,11.2,2,20,2h8
	c8.8,0,16,7.2,16,16v10.7" stroke-linejoin="round" stroke-linecap="round"/>
<path fill="none" stroke="#000000" stroke-width="2" stroke-linecap="round" stroke-miterlimit="10" d="M16,24.4
	c-1-0.3-2-0.4-3-0.4C6.9,24,2,28.9,2,35c0,6.1,4.9,11,11,11c1,0,2-0.2,3-0.4V24.4z" stroke-linejoin="round"/>
<path fill="none" stroke="#000000" stroke-width="2" stroke-linecap="round" stroke-miterlimit="10" d="M32,45.6c1,0.3,2,0.4,3,0.4
	c6.1,0,11-4.9,11-11c0-6.1-4.9-11-11-11c-1,0-2,0.2-3,0.4V45.6z" stroke-linejoin="round"/>
</g></svg>