<svg xmlns="http://www.w3.org/2000/svg" xmlns:xlink="http://www.w3.org/1999/xlink" x="0px" y="0px" width="48px" height="48px" viewBox="0 0 48 48"><g  transform="translate(0, 0)">
<path fill="none" stroke="#000000" stroke-width="2" stroke-linecap="round" stroke-miterlimit="10" d="M2,46l0-22c0-2.2,1.8-4,4-4
	h0c2.2,0,4,1.8,4,4v16" stroke-linejoin="round"/>
<path fill="none" stroke="#000000" stroke-width="2" stroke-linecap="round" stroke-miterlimit="10" d="M26,40l0-16
	c0-2.2-1.8-4-4-4h0c-2.2,0-4,1.8-4,4v16" stroke-linejoin="round"/>
<path fill="none" stroke="#000000" stroke-width="2" stroke-linecap="round" stroke-miterlimit="10" d="M34,46l0-18
	c0-2.2-1.8-4-4-4h0c-2.2,0-4,1.8-4,4v12" stroke-linejoin="round"/>
<path fill="none" stroke="#000000" stroke-width="2" stroke-linecap="round" stroke-miterlimit="10" d="M10,40V20c0-2.2,1.8-4,4-4
	h0c2.2,0,4,1.8,4,4v20" stroke-linejoin="round"/>
<path data-color="color-2" fill="none" stroke="#000000" stroke-width="2" stroke-linecap="round" stroke-miterlimit="10" d="M38,20
	c0-5.5-4.5-10-10-10" stroke-linejoin="round"/>
<path data-color="color-2" fill="none" stroke="#000000" stroke-width="2" stroke-linecap="round" stroke-miterlimit="10" d="M46,20
	c0-9.9-8.1-18-18-18" stroke-linejoin="round"/>
</g></svg>