<svg xmlns="http://www.w3.org/2000/svg" xmlns:xlink="http://www.w3.org/1999/xlink" x="0px" y="0px" width="48px" height="48px" viewBox="0 0 48 48"><g  transform="translate(0, 0)">
<line data-cap="butt" fill="none" stroke="#000000" stroke-width="2" stroke-miterlimit="10" x1="14" y1="12" x2="20" y2="12" stroke-linejoin="round" stroke-linecap="round"/>
<line data-cap="butt" fill="none" stroke="#000000" stroke-width="2" stroke-miterlimit="10" x1="14" y1="20" x2="20" y2="20" stroke-linejoin="round" stroke-linecap="round"/>
<line data-cap="butt" fill="none" stroke="#000000" stroke-width="2" stroke-miterlimit="10" x1="28" y1="12" x2="34" y2="12" stroke-linejoin="round" stroke-linecap="round"/>
<line data-cap="butt" fill="none" stroke="#000000" stroke-width="2" stroke-miterlimit="10" x1="28" y1="20" x2="34" y2="20" stroke-linejoin="round" stroke-linecap="round"/>
<path fill="none" stroke="#000000" stroke-width="2" stroke-linecap="round" stroke-miterlimit="10" d="M24,30L24,30
	c-5.5,0-10-4.5-10-10v-8c0-5.5,4.5-10,10-10h0c5.5,0,10,4.5,10,10v8C34,25.5,29.5,30,24,30z" stroke-linejoin="round"/>
<path data-color="color-2" fill="none" stroke="#000000" stroke-width="2" stroke-linecap="round" stroke-miterlimit="10" d="M42,20
	c0,9.9-8.1,18-18,18h0c-9.9,0-18-8.1-18-18" stroke-linejoin="round"/>
<line data-color="color-2" fill="none" stroke="#000000" stroke-width="2" stroke-linecap="round" stroke-miterlimit="10" x1="14" y1="46" x2="34" y2="46" stroke-linejoin="round"/>
<line data-color="color-2" fill="none" stroke="#000000" stroke-width="2" stroke-linecap="round" stroke-miterlimit="10" x1="24" y1="38" x2="24" y2="46" stroke-linejoin="round"/>
</g></svg>