<svg xmlns="http://www.w3.org/2000/svg" xmlns:xlink="http://www.w3.org/1999/xlink" x="0px" y="0px" width="48px" height="48px" viewBox="0 0 48 48"><g >
<path fill="#444444" d="M43,29c-0.55228,0-1-0.44772-1-1v-7c0-0.55228,0.44772-1,1-1h1V4c0-1.10457-0.89543-2-2-2H13.82843
	c-0.53043,0-1.03914,0.21071-1.41421,0.58579L5.58579,9.41421C5.21071,9.78929,5,10.29799,5,10.82843V20h1c0.55228,0,1,0.44772,1,1
	v7c0,0.55228-0.44772,1-1,1H5v15c0,1.10457,0.89543,2,2,2h35c1.10457,0,2-0.89543,2-2V29H43z"/>
<path fill="#EFD358" d="M39,14h1c0.55228,0,1-0.44771,1-1V7c0-0.55228-0.44772-1-1-1h-1c-0.55228,0-1,0.44772-1,1v6
	C38,13.55229,38.44772,14,39,14z"/>
<path fill="#EFD358" d="M33,14h1c0.55228,0,1-0.44771,1-1V7c0-0.55228-0.44772-1-1-1h-1c-0.55228,0-1,0.44772-1,1v6
	C32,13.55229,32.44772,14,33,14z"/>
<path fill="#EFD358" d="M27,14h1c0.55228,0,1-0.44771,1-1V7c0-0.55228-0.44772-1-1-1h-1c-0.55228,0-1,0.44772-1,1v6
	C26,13.55229,26.44772,14,27,14z"/>
<path fill="#EFD358" d="M21,14h1c0.55228,0,1-0.44771,1-1V7c0-0.55228-0.44772-1-1-1h-1c-0.55228,0-1,0.44772-1,1v6
	C20,13.55229,20.44772,14,21,14z"/>
<path fill="#EFD358" d="M15,14h1c0.55228,0,1-0.44771,1-1V7c0-0.55228-0.44772-1-1-1h-1c-0.55229,0-1,0.44772-1,1v6
	C14,13.55229,14.44771,14,15,14z"/>
<path fill="#EFD358" d="M9,14h1c0.55229,0,1-0.44771,1-1v-2c0-0.55229-0.44771-1-1-1H9c-0.55229,0-1,0.44771-1,1v2
	C8,13.55229,8.44771,14,9,14z"/>
<path fill="#43A6DD" d="M12,41h25c0.55228,0,1-0.44772,1-1V22c0-0.55228-0.44772-1-1-1H12c-0.55229,0-1,0.44772-1,1v18
	C11,40.55228,11.44771,41,12,41z"/>
</g></svg>