<svg xmlns="http://www.w3.org/2000/svg" xmlns:xlink="http://www.w3.org/1999/xlink" x="0px" y="0px" width="48px" height="48px" viewBox="0 0 48 48"><g  transform="translate(0, 0)">
<polyline data-color="color-2" fill="none" stroke="#000000" stroke-width="2" stroke-linecap="round" stroke-miterlimit="10" points="
	12,2 6,2 6,8 " stroke-linejoin="round"/>
<polyline data-color="color-2" fill="none" stroke="#000000" stroke-width="2" stroke-linecap="round" stroke-miterlimit="10" points="
	38,8 38,2 32,2 " stroke-linejoin="round"/>
<path fill="none" stroke="#000000" stroke-width="2" stroke-linecap="round" stroke-miterlimit="10" d="M42,44l0-18
	c0-2.2-1.8-4-4-4H26l0-12c0-2.2-1.8-4-4-4h0c-2.2,0-4,1.8-4,4v22l-5.5-4.1C10.9,26.7,8.9,26.4,7,27l0,0c-1.5,0.5-2.2,2.3-1.3,3.7
	L14,44" stroke-linejoin="round"/>
</g></svg>