<svg xmlns="http://www.w3.org/2000/svg" xmlns:xlink="http://www.w3.org/1999/xlink" x="0px" y="0px" width="48px" height="48px" viewBox="0 0 48 48"><g  transform="translate(0, 0)">
<polyline data-cap="butt" data-color="color-2" fill="none" stroke="#000000" stroke-width="2" stroke-miterlimit="10" points="10,35.8 10,44 18,44 
	" stroke-linejoin="round" stroke-linecap="round"/>
<path data-cap="butt" data-color="color-2" fill="none" stroke="#000000" stroke-width="2" stroke-miterlimit="10" d="M8,16.8V16C8,8.3,14.3,2,22,2h4
	c7.7,0,14,6.3,14,14v0.8" stroke-linejoin="round" stroke-linecap="round"/>
<path fill="none" stroke="#000000" stroke-width="2" stroke-linecap="round" stroke-miterlimit="10" d="M14,16.2
	c-0.6-0.1-1.3-0.2-2-0.2C6.5,16,2,20.5,2,26s4.5,10,10,10c0.7,0,1.4-0.1,2-0.2V16.2z" stroke-linejoin="round"/>
<path fill="none" stroke="#000000" stroke-width="2" stroke-linecap="round" stroke-miterlimit="10" d="M34,35.8
	c0.6,0.1,1.3,0.2,2,0.2c5.5,0,10-4.5,10-10s-4.5-10-10-10c-0.7,0-1.4,0.1-2,0.2V35.8z" stroke-linejoin="round"/>
<rect data-color="color-2" x="18" y="42" fill="none" stroke="#000000" stroke-width="2" stroke-linecap="round" stroke-miterlimit="10" width="8" height="4" stroke-linejoin="round"/>
</g></svg>