<svg xmlns="http://www.w3.org/2000/svg" xmlns:xlink="http://www.w3.org/1999/xlink" x="0px" y="0px" width="48px" height="48px" viewBox="0 0 48 48"><g  transform="translate(0, 0)">
<path data-cap="butt" data-color="color-2" fill="none" stroke="#000000" stroke-width="2" stroke-miterlimit="10" d="M24,5.9c-5.9,2.9-10,9-10,16.1
	c0,0.7,0.1,1.3,0.1,2" stroke-linejoin="round" stroke-linecap="round"/>
<path data-cap="butt" data-color="color-2" fill="none" stroke="#000000" stroke-width="2" stroke-miterlimit="10" d="M24,5.9c5.9,2.9,10,9,10,16.1
	c0,0.7-0.1,1.3-0.1,2" stroke-linejoin="round" stroke-linecap="round"/>
<path data-color="color-2" fill="none" stroke="#000000" stroke-width="2" stroke-linecap="round" stroke-miterlimit="10" d="M43.9,24
	C42.9,13.9,34.4,6,24,6S5.1,13.9,4.1,24H43.9z" stroke-linejoin="round"/>
<path fill="none" stroke="#000000" stroke-width="2" stroke-linecap="round" stroke-miterlimit="10" d="M36,40c0,3.3-2.7,6-6,6h0
	c-3.3,0-6-2.7-6-6V2" stroke-linejoin="round"/>
</g></svg>