<svg xmlns="http://www.w3.org/2000/svg" xmlns:xlink="http://www.w3.org/1999/xlink" x="0px" y="0px" width="48px" height="48px" viewBox="0 0 48 48"><g  transform="translate(0, 0)">
<path data-cap="butt" data-color="color-2" fill="none" stroke="#000000" stroke-width="2" stroke-miterlimit="10" d="M9.2,13.1C7.3,14.4,6,16.5,6,19
	c0,3.9,3.1,7,7,7c2.5,0,4.6-1.3,5.9-3.2" stroke-linejoin="round" stroke-linecap="round"/>
<line data-cap="butt" fill="none" stroke="#000000" stroke-width="2" stroke-miterlimit="10" x1="39.3" y1="23" x2="28.3" y2="10.7" stroke-linejoin="round" stroke-linecap="round"/>
<line data-cap="butt" fill="none" stroke="#000000" stroke-width="2" stroke-miterlimit="10" x1="24" y1="46" x2="39.3" y2="29" stroke-linejoin="round" stroke-linecap="round"/>
<circle fill="none" stroke="#000000" stroke-width="2" stroke-linecap="round" stroke-miterlimit="10" cx="42" cy="26" r="4" stroke-linejoin="round"/>
<line fill="none" stroke="#000000" stroke-width="2" stroke-linecap="round" stroke-miterlimit="10" x1="12" y1="46" x2="36" y2="46" stroke-linejoin="round"/>
<line data-cap="butt" fill="none" stroke="#000000" stroke-width="2" stroke-miterlimit="10" x1="25.3" y1="6.7" x2="30" y2="2" stroke-linejoin="round" stroke-linecap="round"/>
<path fill="none" stroke="#000000" stroke-width="2" stroke-linecap="round" stroke-miterlimit="10" d="M14,2
	C9.6,2,5.6,3.8,2.8,6.6l22.6,22.6C28.2,26.4,30,22.4,30,18C30,9.2,22.8,2,14,2z" stroke-linejoin="round"/>
</g></svg>