<svg xmlns="http://www.w3.org/2000/svg" xmlns:xlink="http://www.w3.org/1999/xlink" x="0px" y="0px" width="48px" height="48px" viewBox="0 0 48 48"><path  fill="none" stroke="#000000" stroke-width="2" stroke-linecap="round" stroke-miterlimit="10" d="M40,18
	c-0.7,0-1.4,0.1-2,0.4V6h-8c0,3.3-2.7,6-6,6s-6-2.7-6-6h-8v12.4C9.4,18.1,8.7,18,8,18c-3.3,0-6,2.7-6,6s2.7,6,6,6
	c0.7,0,1.4-0.1,2-0.4V42h8c0-3.3,2.7-6,6-6s6,2.7,6,6h8V29.6c0.6,0.2,1.3,0.4,2,0.4c3.3,0,6-2.7,6-6S43.3,18,40,18z" transform="translate(0, 0)" stroke-linejoin="round"/></svg>