<svg xmlns="http://www.w3.org/2000/svg" xmlns:xlink="http://www.w3.org/1999/xlink" x="0px" y="0px" width="48px" height="48px" viewBox="0 0 48 48"><g  transform="translate(0, 0)">
<polyline data-cap="butt" data-color="color-2" fill="none" stroke="#000000" stroke-width="2" stroke-miterlimit="10" points="12,10 14,2 30,2 32,10 
	" stroke-linejoin="round" stroke-linecap="round"/>
<polyline data-cap="butt" data-color="color-2" fill="none" stroke="#000000" stroke-width="2" stroke-miterlimit="10" points="32,38 30,46 14,46 
	12,38 " stroke-linejoin="round" stroke-linecap="round"/>
<path fill="none" stroke="#000000" stroke-width="2" stroke-linecap="round" stroke-miterlimit="10" d="M32,38H12c-2.2,0-4-1.8-4-4
	V14c0-2.2,1.8-4,4-4h20c2.2,0,4,1.8,4,4v20C36,36.2,34.2,38,32,38z" stroke-linejoin="round"/>
<polyline fill="none" stroke="#000000" stroke-width="2" stroke-linecap="round" stroke-miterlimit="10" points="36,20 40,20 
	40,28 36,28 " stroke-linejoin="round"/>
<rect data-color="color-2" x="14" y="16" fill="none" stroke="#000000" stroke-width="2" stroke-linecap="round" stroke-miterlimit="10" width="16" height="16" stroke-linejoin="round"/>
</g></svg>