<svg xmlns="http://www.w3.org/2000/svg" xmlns:xlink="http://www.w3.org/1999/xlink" x="0px" y="0px" width="48px" height="48px" viewBox="0 0 48 48"><g  transform="translate(0, 0)">
<path data-cap="butt" data-color="color-2" fill="none" stroke="#000000" stroke-width="2" stroke-miterlimit="10" d="M17.3,30L5.9,36.8
	c-1.2,0.7-1.9,2-1.9,3.4V46h40v-5.7c0-1.4-0.7-2.7-1.9-3.4L30.7,30" stroke-linejoin="round" stroke-linecap="round"/>
<path data-cap="butt" fill="none" stroke="#000000" stroke-width="2" stroke-miterlimit="10" d="M12,15.5c1.9,1.6,4.3,2.5,7,2.5
	c4.4,0,8.3-2.6,10-6.4c1.3,2.9,3.9,5.1,7,6" stroke-linejoin="round" stroke-linecap="round"/>
<path fill="none" stroke="#000000" stroke-width="2" stroke-linecap="round" stroke-miterlimit="10" d="M24,32L24,32
	c-6.6,0-12-5.4-12-12v-6c0-6.6,5.4-12,12-12h0c6.6,0,12,5.4,12,12v6C36,26.6,30.6,32,24,32z" stroke-linejoin="round"/></g></svg>